{
	"patcher" : 	{
		"fileversion" : 1,
		"appversion" : 		{
			"major" : 6,
			"minor" : 1,
			"revision" : 3,
			"architecture" : "x86"
		}
,
		"rect" : [ 480.0, 44.0, 800.0, 658.0 ],
		"bglocked" : 0,
		"openinpresentation" : 0,
		"default_fontsize" : 12.0,
		"default_fontface" : 0,
		"default_fontname" : "Arial",
		"gridonopen" : 0,
		"gridsize" : [ 5.0, 5.0 ],
		"gridsnaponopen" : 0,
		"statusbarvisible" : 2,
		"toolbarvisible" : 1,
		"boxanimatetime" : 200,
		"imprint" : 0,
		"enablehscroll" : 1,
		"enablevscroll" : 1,
		"devicewidth" : 0.0,
		"description" : "",
		"digest" : "",
		"tags" : "",
		"boxes" : [ 			{
				"box" : 				{
					"fontname" : "Arial",
					"fontsize" : 12.0,
					"id" : "obj-11",
					"maxclass" : "message",
					"numinlets" : 2,
					"numoutlets" : 1,
					"outlettype" : [ "" ],
					"patching_rect" : [ 10.0, 405.0, 189.0, 18.0 ],
					"text" : "/oscillator/pulserate/:show"
				}

			}
, 			{
				"box" : 				{
					"fontname" : "Arial",
					"fontsize" : 12.0,
					"id" : "obj-13",
					"maxclass" : "message",
					"numinlets" : 2,
					"numoutlets" : 1,
					"outlettype" : [ "" ],
					"patching_rect" : [ 510.0, 255.0, 214.0, 18.0 ],
					"text" : "/input~/output/sendcount/:show"
				}

			}
, 			{
				"box" : 				{
					"fontname" : "Arial",
					"fontsize" : 12.0,
					"id" : "obj-9",
					"maxclass" : "message",
					"numinlets" : 2,
					"numoutlets" : 1,
					"outlettype" : [ "" ],
					"patching_rect" : [ 545.0, 525.0, 217.0, 18.0 ],
					"text" : "/input~.2/oscillator/pulserate 425."
				}

			}
, 			{
				"box" : 				{
					"fontname" : "Arial",
					"fontsize" : 12.0,
					"id" : "obj-12",
					"maxclass" : "message",
					"numinlets" : 2,
					"numoutlets" : 1,
					"outlettype" : [ "" ],
					"patching_rect" : [ 550.0, 280.0, 57.0, 18.0 ],
					"text" : ":getstate"
				}

			}
, 			{
				"box" : 				{
					"fontname" : "Arial",
					"fontsize" : 12.0,
					"id" : "obj-10",
					"maxclass" : "newobj",
					"numinlets" : 1,
					"numoutlets" : 0,
					"patching_rect" : [ 555.0, 410.0, 100.0, 20.0 ],
					"text" : "print ROOT"
				}

			}
, 			{
				"box" : 				{
					"fontname" : "Arial",
					"fontsize" : 12.0,
					"id" : "obj-4",
					"maxclass" : "newobj",
					"numinlets" : 2,
					"numoutlets" : 3,
					"outlettype" : [ "", "", "" ],
					"patching_rect" : [ 550.0, 335.0, 100.0, 20.0 ],
					"text" : "mxj oovu.Root"
				}

			}
, 			{
				"box" : 				{
					"fontname" : "Arial",
					"fontsize" : 12.0,
					"id" : "obj-42",
					"linecount" : 3,
					"maxclass" : "message",
					"numinlets" : 2,
					"numoutlets" : 1,
					"outlettype" : [ "" ],
					"patching_rect" : [ 105.0, 495.0, 217.0, 45.0 ],
					"text" : "interface dumpmeta getinterface getmeta getname getoscaddress getuniqueid report show"
				}

			}
, 			{
				"box" : 				{
					"fontname" : "Arial",
					"fontsize" : 12.0,
					"id" : "obj-41",
					"maxclass" : "message",
					"numinlets" : 2,
					"numoutlets" : 1,
					"outlettype" : [ "" ],
					"patching_rect" : [ 120.0, 5.0, 89.0, 18.0 ],
					"text" : "getoscaddress"
				}

			}
, 			{
				"box" : 				{
					"fontname" : "Arial",
					"fontsize" : 12.0,
					"id" : "obj-40",
					"maxclass" : "message",
					"numinlets" : 2,
					"numoutlets" : 1,
					"outlettype" : [ "" ],
					"patching_rect" : [ 450.0, 55.0, 61.0, 18.0 ],
					"text" : "getname"
				}

			}
, 			{
				"box" : 				{
					"fontname" : "Arial",
					"fontsize" : 12.0,
					"id" : "obj-39",
					"linecount" : 8,
					"maxclass" : "message",
					"numinlets" : 2,
					"numoutlets" : 1,
					"outlettype" : [ "" ],
					"patching_rect" : [ 385.0, 415.0, 90.0, 112.0 ],
					"text" : "interface dumpmeta getinterface getmeta getname getoscaddress getuniqueid report show"
				}

			}
, 			{
				"box" : 				{
					"fontname" : "Arial",
					"fontsize" : 12.0,
					"id" : "obj-38",
					"maxclass" : "message",
					"numinlets" : 2,
					"numoutlets" : 1,
					"outlettype" : [ "" ],
					"patching_rect" : [ 350.0, 50.0, 61.0, 18.0 ],
					"text" : ":getname"
				}

			}
, 			{
				"box" : 				{
					"fontname" : "Arial",
					"fontsize" : 12.0,
					"id" : "obj-37",
					"linecount" : 3,
					"maxclass" : "message",
					"numinlets" : 2,
					"numoutlets" : 1,
					"outlettype" : [ "" ],
					"patching_rect" : [ 360.0, 375.0, 51.0, 45.0 ],
					"text" : "/soundfile/playing 0"
				}

			}
, 			{
				"box" : 				{
					"args" : [ "input~" ],
					"id" : "obj-35",
					"maxclass" : "bpatcher",
					"name" : "omod.input~.maxpat",
					"numinlets" : 2,
					"numoutlets" : 2,
					"outlettype" : [ "", "" ],
					"patching_rect" : [ 350.0, 110.0, 140.0, 210.0 ]
				}

			}
, 			{
				"box" : 				{
					"fontname" : "Arial",
					"fontsize" : 12.0,
					"id" : "obj-34",
					"maxclass" : "message",
					"numinlets" : 2,
					"numoutlets" : 1,
					"outlettype" : [ "" ],
					"patching_rect" : [ 200.0, 60.0, 50.0, 18.0 ],
					"text" : ":show"
				}

			}
, 			{
				"box" : 				{
					"args" : [ "input~" ],
					"id" : "obj-33",
					"maxclass" : "bpatcher",
					"name" : "omod.input~.maxpat",
					"numinlets" : 2,
					"numoutlets" : 2,
					"outlettype" : [ "", "" ],
					"patching_rect" : [ 200.0, 110.0, 140.0, 210.0 ]
				}

			}
, 			{
				"box" : 				{
					"id" : "obj-28",
					"maxclass" : "button",
					"numinlets" : 1,
					"numoutlets" : 1,
					"outlettype" : [ "bang" ],
					"patching_rect" : [ 85.0, 325.0, 20.0, 20.0 ]
				}

			}
, 			{
				"box" : 				{
					"fontname" : "Arial",
					"fontsize" : 12.0,
					"id" : "obj-18",
					"maxclass" : "message",
					"numinlets" : 2,
					"numoutlets" : 1,
					"outlettype" : [ "" ],
					"patching_rect" : [ 140.0, 550.0, 90.0, 18.0 ],
					"text" : "adc"
				}

			}
, 			{
				"box" : 				{
					"fontname" : "Arial",
					"fontsize" : 12.0,
					"id" : "obj-24",
					"maxclass" : "message",
					"numinlets" : 2,
					"numoutlets" : 1,
					"outlettype" : [ "" ],
					"patching_rect" : [ 180.0, 575.0, 90.0, 18.0 ],
					"text" : "oscillator"
				}

			}
, 			{
				"box" : 				{
					"fontname" : "Arial",
					"fontsize" : 12.0,
					"id" : "obj-6",
					"maxclass" : "newobj",
					"numinlets" : 3,
					"numoutlets" : 3,
					"outlettype" : [ "", "", "" ],
					"patching_rect" : [ 150.0, 615.0, 191.0, 20.0 ],
					"text" : "mxj oovu.Proxy /input~.1/source"
				}

			}
, 			{
				"box" : 				{
					"fontname" : "Arial",
					"fontsize" : 12.0,
					"id" : "obj-17",
					"maxclass" : "message",
					"numinlets" : 2,
					"numoutlets" : 1,
					"outlettype" : [ "" ],
					"patching_rect" : [ 110.0, 60.0, 50.0, 18.0 ],
					"text" : ":show"
				}

			}
, 			{
				"box" : 				{
					"id" : "obj-2",
					"maxclass" : "ezdac~",
					"numinlets" : 2,
					"numoutlets" : 0,
					"patching_rect" : [ 475.0, 455.0, 45.0, 45.0 ]
				}

			}
, 			{
				"box" : 				{
					"id" : "obj-7",
					"maxclass" : "toggle",
					"numinlets" : 1,
					"numoutlets" : 1,
					"outlettype" : [ "int" ],
					"parameter_enable" : 0,
					"patching_rect" : [ 50.0, 30.0, 20.0, 20.0 ]
				}

			}
, 			{
				"box" : 				{
					"fontname" : "Arial",
					"fontsize" : 12.0,
					"id" : "obj-5",
					"linecount" : 2,
					"maxclass" : "message",
					"numinlets" : 2,
					"numoutlets" : 1,
					"outlettype" : [ "" ],
					"patching_rect" : [ 50.0, 60.0, 50.0, 31.0 ],
					"text" : "/dsp/active $1"
				}

			}
, 			{
				"box" : 				{
					"fontname" : "Arial",
					"fontsize" : 12.0,
					"id" : "obj-3",
					"maxclass" : "message",
					"numinlets" : 2,
					"numoutlets" : 1,
					"outlettype" : [ "" ],
					"patching_rect" : [ 50.0, 370.0, 217.0, 18.0 ],
					"text" : "/oscillator/pulserate 425."
				}

			}
, 			{
				"box" : 				{
					"args" : [ "input~" ],
					"id" : "obj-1",
					"maxclass" : "bpatcher",
					"name" : "omod.input~.maxpat",
					"numinlets" : 2,
					"numoutlets" : 2,
					"outlettype" : [ "", "" ],
					"patching_rect" : [ 50.0, 110.0, 140.0, 210.0 ]
				}

			}
 ],
		"lines" : [ 			{
				"patchline" : 				{
					"destination" : [ "obj-28", 0 ],
					"disabled" : 0,
					"hidden" : 0,
					"source" : [ "obj-1", 0 ]
				}

			}
, 			{
				"patchline" : 				{
					"destination" : [ "obj-3", 1 ],
					"disabled" : 0,
					"hidden" : 0,
					"source" : [ "obj-1", 0 ]
				}

			}
, 			{
				"patchline" : 				{
					"destination" : [ "obj-42", 1 ],
					"disabled" : 0,
					"hidden" : 0,
					"source" : [ "obj-1", 1 ]
				}

			}
, 			{
				"patchline" : 				{
					"destination" : [ "obj-1", 0 ],
					"disabled" : 0,
					"hidden" : 0,
					"source" : [ "obj-11", 0 ]
				}

			}
, 			{
				"patchline" : 				{
					"destination" : [ "obj-4", 0 ],
					"disabled" : 0,
					"hidden" : 0,
					"source" : [ "obj-12", 0 ]
				}

			}
, 			{
				"patchline" : 				{
					"destination" : [ "obj-4", 0 ],
					"disabled" : 0,
					"hidden" : 0,
					"source" : [ "obj-13", 0 ]
				}

			}
, 			{
				"patchline" : 				{
					"destination" : [ "obj-1", 0 ],
					"disabled" : 0,
					"hidden" : 0,
					"source" : [ "obj-17", 0 ]
				}

			}
, 			{
				"patchline" : 				{
					"destination" : [ "obj-6", 0 ],
					"disabled" : 0,
					"hidden" : 0,
					"source" : [ "obj-18", 0 ]
				}

			}
, 			{
				"patchline" : 				{
					"destination" : [ "obj-6", 0 ],
					"disabled" : 0,
					"hidden" : 0,
					"source" : [ "obj-24", 0 ]
				}

			}
, 			{
				"patchline" : 				{
					"destination" : [ "obj-33", 0 ],
					"disabled" : 0,
					"hidden" : 0,
					"source" : [ "obj-34", 0 ]
				}

			}
, 			{
				"patchline" : 				{
					"destination" : [ "obj-37", 1 ],
					"disabled" : 0,
					"hidden" : 0,
					"source" : [ "obj-35", 0 ]
				}

			}
, 			{
				"patchline" : 				{
					"destination" : [ "obj-39", 1 ],
					"disabled" : 0,
					"hidden" : 0,
					"source" : [ "obj-35", 1 ]
				}

			}
, 			{
				"patchline" : 				{
					"destination" : [ "obj-35", 0 ],
					"disabled" : 0,
					"hidden" : 0,
					"source" : [ "obj-38", 0 ]
				}

			}
, 			{
				"patchline" : 				{
					"destination" : [ "obj-10", 0 ],
					"disabled" : 0,
					"hidden" : 0,
					"source" : [ "obj-4", 2 ]
				}

			}
, 			{
				"patchline" : 				{
					"destination" : [ "obj-9", 1 ],
					"disabled" : 0,
					"hidden" : 0,
					"source" : [ "obj-4", 1 ]
				}

			}
, 			{
				"patchline" : 				{
					"destination" : [ "obj-35", 1 ],
					"disabled" : 0,
					"hidden" : 0,
					"source" : [ "obj-40", 0 ]
				}

			}
, 			{
				"patchline" : 				{
					"destination" : [ "obj-1", 1 ],
					"disabled" : 0,
					"hidden" : 0,
					"source" : [ "obj-41", 0 ]
				}

			}
, 			{
				"patchline" : 				{
					"destination" : [ "obj-1", 0 ],
					"disabled" : 0,
					"hidden" : 0,
					"source" : [ "obj-5", 0 ]
				}

			}
, 			{
				"patchline" : 				{
					"destination" : [ "obj-5", 0 ],
					"disabled" : 0,
					"hidden" : 0,
					"source" : [ "obj-7", 0 ]
				}

			}
 ],
		"parameters" : 		{
			"obj-33::obj-13::obj-9" : [ "live.tab[1]", "live.tab", 0 ],
			"obj-1::obj-13::obj-62::obj-51" : [ "live.numbox[10]", "live.numbox", 0 ],
			"obj-35::obj-13::obj-58::obj-21" : [ "live.numbox[2]", "live.numbox", 0 ],
			"obj-1::obj-13::obj-6" : [ "live.slider[6]", "live.slider", 0 ],
			"obj-33::obj-13::obj-58::obj-21" : [ "live.numbox[11]", "live.numbox", 0 ],
			"obj-35::obj-13::obj-62::obj-36" : [ "live.numbox[5]", "live.numbox[1]", 0 ],
			"obj-35::obj-13::obj-11::obj-18::obj-4" : [ "live.slider", "live.slider", 0 ],
			"obj-1::obj-13::obj-56::obj-41" : [ "live.numbox[16]", "live.numbox", 0 ],
			"obj-1::obj-13::obj-56::obj-42" : [ "live.numbox[15]", "live.numbox", 0 ],
			"obj-33::obj-13::obj-11::obj-204" : [ "live.numbox[1]", "live.numbox", 0 ],
			"obj-35::obj-13::obj-11::obj-204" : [ "live.numbox[3]", "live.numbox", 0 ],
			"obj-33::obj-13::obj-62::obj-51" : [ "live.numbox[8]", "live.numbox", 0 ],
			"obj-35::obj-13::obj-62::obj-51" : [ "live.numbox[6]", "live.numbox", 0 ],
			"obj-1::obj-13::obj-56::obj-33" : [ "live.tab[4]", "live.tab[1]", 0 ],
			"obj-1::obj-13::obj-62::obj-36" : [ "live.numbox[9]", "live.numbox[1]", 0 ],
			"obj-35::obj-13::obj-6" : [ "live.slider[3]", "live.slider", 0 ],
			"obj-33::obj-13::obj-56::obj-41" : [ "live.numbox[14]", "live.numbox", 0 ],
			"obj-33::obj-13::obj-62::obj-36" : [ "live.numbox[7]", "live.numbox[1]", 0 ],
			"obj-35::obj-13::obj-9" : [ "live.tab", "live.tab", 0 ],
			"obj-1::obj-13::obj-58::obj-21" : [ "live.numbox[12]", "live.numbox", 0 ],
			"obj-1::obj-13::obj-9" : [ "live.tab[2]", "live.tab", 0 ],
			"obj-1::obj-13::obj-11::obj-18::obj-4" : [ "live.slider[5]", "live.slider", 0 ],
			"obj-33::obj-13::obj-56::obj-42" : [ "live.numbox[13]", "live.numbox", 0 ],
			"obj-33::obj-13::obj-11::obj-18::obj-4" : [ "live.slider[1]", "live.slider", 0 ],
			"obj-35::obj-13::obj-56::obj-42" : [ "live.numbox[28]", "live.numbox", 0 ],
			"obj-35::obj-13::obj-56::obj-41" : [ "live.numbox[29]", "live.numbox", 0 ],
			"obj-1::obj-13::obj-11::obj-204" : [ "live.numbox[4]", "live.numbox", 0 ],
			"obj-35::obj-13::obj-56::obj-33" : [ "live.tab[6]", "live.tab[1]", 0 ],
			"obj-33::obj-13::obj-56::obj-33" : [ "live.tab[3]", "live.tab[1]", 0 ],
			"obj-33::obj-13::obj-6" : [ "live.slider[4]", "live.slider", 0 ]
		}
,
		"dependency_cache" : [ 			{
				"name" : "omod.input~.maxpat",
				"bootpath" : "/Users/josiah/Documents/Development/oovu/modules/omod.input~",
				"patcherrelativepath" : ".",
				"type" : "JSON",
				"implicit" : 1
			}
, 			{
				"name" : "omod.input~.model.maxpat",
				"bootpath" : "/Users/josiah/Documents/Development/oovu/modules/omod.input~",
				"patcherrelativepath" : ".",
				"type" : "JSON",
				"implicit" : 1
			}
, 			{
				"name" : "oovu.bundle.dsp.sender.maxpat",
				"bootpath" : "/Users/josiah/Documents/Development/oovu/abstractions/bundles",
				"patcherrelativepath" : "../../abstractions/bundles",
				"type" : "JSON",
				"implicit" : 1
			}
, 			{
				"name" : "oovu.push.source.maxpat",
				"bootpath" : "/Users/josiah/Documents/Development/oovu/abstractions/pushpull",
				"patcherrelativepath" : "../../abstractions/pushpull",
				"type" : "JSON",
				"implicit" : 1
			}
, 			{
				"name" : "oovu.push.source.poly~.maxpat",
				"bootpath" : "/Users/josiah/Documents/Development/oovu/abstractions/pushpull",
				"patcherrelativepath" : "../../abstractions/pushpull",
				"type" : "JSON",
				"implicit" : 1
			}
, 			{
				"name" : "oovu.dsp.8chlevels.maxpat",
				"bootpath" : "/Users/josiah/Documents/Development/oovu/abstractions/dsp",
				"patcherrelativepath" : "../../abstractions/dsp",
				"type" : "JSON",
				"implicit" : 1
			}
, 			{
				"name" : "omod.input~.voix.maxpat",
				"bootpath" : "/Users/josiah/Documents/Development/oovu/modules/omod.input~",
				"patcherrelativepath" : ".",
				"type" : "JSON",
				"implicit" : 1
			}
, 			{
				"name" : "oovu.dsp.thispoly~.maxpat",
				"bootpath" : "/Users/josiah/Documents/Development/oovu/abstractions/dsp",
				"patcherrelativepath" : "../../abstractions/dsp",
				"type" : "JSON",
				"implicit" : 1
			}
, 			{
				"name" : "omod.input~.view.maxpat",
				"bootpath" : "/Users/josiah/Documents/Development/oovu/modules/omod.input~",
				"patcherrelativepath" : ".",
				"type" : "JSON",
				"implicit" : 1
			}
, 			{
				"name" : "oovu.guibackground.js",
				"bootpath" : "/Users/josiah/Documents/Development/oovu/abstractions/gui",
				"patcherrelativepath" : "../../abstractions/gui",
				"type" : "TEXT",
				"implicit" : 1
			}
, 			{
				"name" : "oovu.gui.meters.8x.maxpat",
				"bootpath" : "/Users/josiah/Documents/Development/oovu/abstractions/gui",
				"patcherrelativepath" : "../../abstractions/gui",
				"type" : "JSON",
				"implicit" : 1
			}
, 			{
				"name" : "omod.input~.view.oscillator.maxpat",
				"bootpath" : "/Users/josiah/Documents/Development/oovu/modules/omod.input~",
				"patcherrelativepath" : ".",
				"type" : "JSON",
				"implicit" : 1
			}
, 			{
				"name" : "sine.svg",
				"bootpath" : "/Applications/Max 6.1/patches/picts/m4l-picts",
				"patcherrelativepath" : "../../../../../../../Applications/Max 6.1/patches/picts/m4l-picts",
				"type" : "svg ",
				"implicit" : 1
			}
, 			{
				"name" : "saw.svg",
				"bootpath" : "/Applications/Max 6.1/patches/picts/m4l-picts",
				"patcherrelativepath" : "../../../../../../../Applications/Max 6.1/patches/picts/m4l-picts",
				"type" : "svg ",
				"implicit" : 1
			}
, 			{
				"name" : "square.svg",
				"bootpath" : "/Applications/Max 6.1/patches/picts/m4l-picts",
				"patcherrelativepath" : "../../../../../../../Applications/Max 6.1/patches/picts/m4l-picts",
				"type" : "svg ",
				"implicit" : 1
			}
, 			{
				"name" : "random.svg",
				"bootpath" : "/Applications/Max 6.1/patches/picts/m4l-picts",
				"patcherrelativepath" : "../../../../../../../Applications/Max 6.1/patches/picts/m4l-picts",
				"type" : "svg ",
				"implicit" : 1
			}
, 			{
				"name" : "omod.input~.view.soundfile.maxpat",
				"bootpath" : "/Users/josiah/Documents/Development/oovu/modules/omod.input~",
				"patcherrelativepath" : ".",
				"type" : "JSON",
				"implicit" : 1
			}
, 			{
				"name" : "omod.input~.view.adc.maxpat",
				"bootpath" : "/Users/josiah/Documents/Development/oovu/modules/omod.input~",
				"patcherrelativepath" : ".",
				"type" : "JSON",
				"implicit" : 1
			}
, 			{
				"name" : "oovu.gui.send.dynamic.maxpat",
				"bootpath" : "/Users/josiah/Documents/Development/oovu/abstractions/gui",
				"patcherrelativepath" : "../../abstractions/gui",
				"type" : "JSON",
				"implicit" : 1
			}
, 			{
				"name" : "oovu.gui.send.1x.maxpat",
				"bootpath" : "/Users/josiah/Documents/Development/oovu/abstractions/gui",
				"patcherrelativepath" : "../../abstractions/gui",
				"type" : "JSON",
				"implicit" : 1
			}
, 			{
				"name" : "oovu.util.makeumenu.maxpat",
				"bootpath" : "/Users/josiah/Documents/Development/oovu/abstractions/utilities",
				"patcherrelativepath" : "../../abstractions/utilities",
				"type" : "JSON",
				"implicit" : 1
			}
 ]
	}

}
