{
	"patcher" : 	{
		"fileversion" : 1,
		"appversion" : 		{
			"major" : 6,
			"minor" : 1,
			"revision" : 3,
			"architecture" : "x86"
		}
,
		"rect" : [ 749.0, 257.0, 640.0, 480.0 ],
		"bgcolor" : [ 1.0, 1.0, 1.0, 0.0 ],
		"bglocked" : 0,
		"openinpresentation" : 1,
		"default_fontsize" : 12.0,
		"default_fontface" : 0,
		"default_fontname" : "Arial",
		"gridonopen" : 0,
		"gridsize" : [ 5.0, 5.0 ],
		"gridsnaponopen" : 0,
		"statusbarvisible" : 2,
		"toolbarvisible" : 1,
		"boxanimatetime" : 200,
		"imprint" : 0,
		"enablehscroll" : 1,
		"enablevscroll" : 1,
		"devicewidth" : 0.0,
		"description" : "",
		"digest" : "",
		"tags" : "",
		"boxes" : [ 			{
				"box" : 				{
					"align" : 0,
					"bgcolor" : [ 0.666667, 0.698039, 0.717647, 0.0 ],
					"bgoncolor" : [ 0.666667, 0.698039, 0.717647, 0.0 ],
					"bgovercolor" : [ 0.666667, 0.698039, 0.717647, 0.0 ],
					"bgoveroncolor" : [ 0.666667, 0.698039, 0.717647, 0.0 ],
					"border" : 1,
					"bordercolor" : [ 0.501961, 0.501961, 0.501961, 1.0 ],
					"borderoncolor" : [ 0.666667, 0.698039, 0.717647, 0.0 ],
					"fontname" : "Arial Bold",
					"fontsize" : 10.0,
					"id" : "obj-1",
					"ignoreclick" : 1,
					"maxclass" : "textbutton",
					"mode" : 1,
					"numinlets" : 1,
					"numoutlets" : 3,
					"outlettype" : [ "", "", "int" ],
					"parameter_enable" : 0,
					"patching_rect" : [ 0.0, 22.0, 28.0, 16.0 ],
					"presentation" : 1,
					"presentation_rect" : [ 0.0, 20.0, 130.0, 20.0 ],
					"prototypename" : "M4L.display",
					"rounded" : 8.0,
					"text" : "time",
					"textcolor" : [ 0.8, 0.8, 0.8, 1.0 ],
					"texton" : "Text",
					"textovercolor" : [ 1.0, 1.0, 1.0, 1.0 ],
					"textoveroncolor" : [ 1.0, 1.0, 1.0, 1.0 ],
					"truncate" : 2
				}

			}
, 			{
				"box" : 				{
					"fontname" : "Arial",
					"fontsize" : 12.0,
					"id" : "obj-4",
					"maxclass" : "newobj",
					"numinlets" : 1,
					"numoutlets" : 1,
					"outlettype" : [ "" ],
					"patching_rect" : [ 215.0, 150.0, 95.0, 20.0 ],
					"text" : "loadmess <file>"
				}

			}
, 			{
				"box" : 				{
					"fontname" : "Arial",
					"fontsize" : 12.0,
					"id" : "obj-3",
					"maxclass" : "newobj",
					"numinlets" : 1,
					"numoutlets" : 1,
					"outlettype" : [ "" ],
					"patching_rect" : [ 200.0, 180.0, 77.0, 20.0 ],
					"text" : "prepend text"
				}

			}
, 			{
				"box" : 				{
					"align" : 0,
					"bgcolor" : [ 0.666667, 0.698039, 0.717647, 0.0 ],
					"bgoncolor" : [ 0.666667, 0.698039, 0.717647, 0.0 ],
					"bgovercolor" : [ 0.666667, 0.698039, 0.717647, 0.0 ],
					"bgoveroncolor" : [ 0.666667, 0.698039, 0.717647, 0.0 ],
					"border" : 1,
					"bordercolor" : [ 0.666667, 0.698039, 0.717647, 0.0 ],
					"borderoncolor" : [ 0.666667, 0.698039, 0.717647, 0.0 ],
					"fontname" : "Arial Bold",
					"fontsize" : 10.0,
					"id" : "obj-2",
					"ignoreclick" : 1,
					"maxclass" : "textbutton",
					"mode" : 1,
					"numinlets" : 1,
					"numoutlets" : 3,
					"outlettype" : [ "", "", "int" ],
					"parameter_enable" : 0,
					"patching_rect" : [ 200.0, 205.0, 28.0, 16.0 ],
					"presentation" : 1,
					"presentation_rect" : [ 45.0, 0.0, 85.0, 15.0 ],
					"prototypename" : "M4L.display",
					"rounded" : 0.0,
					"text" : "<file>",
					"textcolor" : [ 0.8, 0.8, 0.8, 1.0 ],
					"texton" : "Text",
					"textovercolor" : [ 1.0, 1.0, 1.0, 1.0 ],
					"textoveroncolor" : [ 1.0, 1.0, 1.0, 1.0 ],
					"truncate" : 2
				}

			}
, 			{
				"box" : 				{
					"bgcolor" : [ 0.568627, 0.619608, 0.662745, 1.0 ],
					"bgoncolor" : [ 0.921569, 0.94902, 0.05098, 1.0 ],
					"bgovercolor" : [ 0.568627, 0.619608, 0.662745, 1.0 ],
					"bgoveroncolor" : [ 0.921569, 0.94902, 0.05098, 1.0 ],
					"border" : 1,
					"bordercolor" : [ 0.301961, 0.337255, 0.403922, 1.0 ],
					"borderoncolor" : [ 0.301961, 0.337255, 0.403922, 1.0 ],
					"fontface" : 1,
					"fontname" : "Arial",
					"fontsize" : 10.0,
					"id" : "obj-50",
					"maxclass" : "textbutton",
					"numinlets" : 1,
					"numoutlets" : 3,
					"outlettype" : [ "", "", "int" ],
					"parameter_enable" : 0,
					"patching_rect" : [ 125.0, 300.0, 32.0, 15.0 ],
					"presentation" : 1,
					"presentation_rect" : [ 70.0, 65.0, 60.0, 15.0 ],
					"prototypename" : "M4L.toggle",
					"rounded" : 0.0,
					"text" : "Seek",
					"textcolor" : [ 0.101961, 0.121569, 0.172549, 1.0 ],
					"texton" : "Trig",
					"textoncolor" : [ 0.101961, 0.121569, 0.172549, 1.0 ],
					"textovercolor" : [ 0.101961, 0.121569, 0.172549, 1.0 ],
					"textoveroncolor" : [ 0.101961, 0.121569, 0.172549, 1.0 ]
				}

			}
, 			{
				"box" : 				{
					"fontname" : "Arial",
					"fontsize" : 12.0,
					"id" : "obj-27",
					"maxclass" : "newobj",
					"numinlets" : 1,
					"numoutlets" : 2,
					"outlettype" : [ "", "bang" ],
					"patching_rect" : [ 90.0, 125.0, 105.0, 20.0 ],
					"text" : "opendialog sound"
				}

			}
, 			{
				"box" : 				{
					"fontname" : "Arial",
					"fontsize" : 12.0,
					"id" : "obj-22",
					"maxclass" : "newobj",
					"numinlets" : 2,
					"numoutlets" : 1,
					"outlettype" : [ "float" ],
					"patching_rect" : [ 160.0, 300.0, 33.0, 20.0 ],
					"text" : "float"
				}

			}
, 			{
				"box" : 				{
					"id" : "obj-21",
					"maxclass" : "live.numbox",
					"numinlets" : 1,
					"numoutlets" : 2,
					"outlettype" : [ "", "float" ],
					"parameter_enable" : 1,
					"patching_rect" : [ 70.0, 300.0, 50.0, 15.0 ],
					"presentation" : 1,
					"presentation_rect" : [ 70.0, 45.0, 60.0, 15.0 ],
					"saved_attribute_attributes" : 					{
						"valueof" : 						{
							"parameter_longname" : "live.numbox[2]",
							"parameter_shortname" : "live.numbox",
							"parameter_type" : 0,
							"parameter_mmax" : 60000.0,
							"parameter_unitstyle" : 2
						}

					}
,
					"varname" : "live.numbox[2]"
				}

			}
, 			{
				"box" : 				{
					"fontname" : "Arial",
					"fontsize" : 12.0,
					"id" : "obj-19",
					"maxclass" : "newobj",
					"numinlets" : 3,
					"numoutlets" : 4,
					"outlettype" : [ "", "", "", "bang" ],
					"patching_rect" : [ 200.0, 300.0, 195.0, 20.0 ],
					"text" : "oovu.binding #1 soundfile/seek"
				}

			}
, 			{
				"box" : 				{
					"fontname" : "Arial",
					"fontsize" : 12.0,
					"id" : "obj-18",
					"maxclass" : "newobj",
					"numinlets" : 3,
					"numoutlets" : 4,
					"outlettype" : [ "", "", "", "bang" ],
					"patching_rect" : [ 200.0, 270.0, 207.0, 20.0 ],
					"text" : "oovu.binding #1 soundfile/looping"
				}

			}
, 			{
				"box" : 				{
					"fontname" : "Arial",
					"fontsize" : 12.0,
					"id" : "obj-17",
					"maxclass" : "newobj",
					"numinlets" : 3,
					"numoutlets" : 4,
					"outlettype" : [ "", "", "", "bang" ],
					"patching_rect" : [ 200.0, 240.0, 207.0, 20.0 ],
					"text" : "oovu.binding #1 soundfile/playing"
				}

			}
, 			{
				"box" : 				{
					"fontname" : "Arial",
					"fontsize" : 12.0,
					"id" : "obj-16",
					"maxclass" : "newobj",
					"numinlets" : 3,
					"numoutlets" : 4,
					"outlettype" : [ "", "", "", "bang" ],
					"patching_rect" : [ 200.0, 125.0, 207.0, 20.0 ],
					"text" : "oovu.binding #1 soundfile/filepath"
				}

			}
, 			{
				"box" : 				{
					"bgcolor" : [ 0.568627, 0.619608, 0.662745, 1.0 ],
					"bgoncolor" : [ 0.921569, 0.94902, 0.05098, 1.0 ],
					"bgovercolor" : [ 0.568627, 0.619608, 0.662745, 1.0 ],
					"bgoveroncolor" : [ 0.921569, 0.94902, 0.05098, 1.0 ],
					"border" : 1,
					"bordercolor" : [ 0.301961, 0.337255, 0.403922, 1.0 ],
					"borderoncolor" : [ 0.301961, 0.337255, 0.403922, 1.0 ],
					"fontface" : 1,
					"fontname" : "Arial",
					"fontsize" : 10.0,
					"id" : "obj-15",
					"maxclass" : "textbutton",
					"mode" : 1,
					"numinlets" : 1,
					"numoutlets" : 3,
					"outlettype" : [ "", "", "int" ],
					"parameter_enable" : 0,
					"patching_rect" : [ 95.0, 270.0, 75.0, 20.0 ],
					"presentation" : 1,
					"presentation_rect" : [ 0.0, 65.0, 65.0, 15.0 ],
					"prototypename" : "M4L.toggle-yellow",
					"rounded" : 0.0,
					"text" : "No Loop",
					"textcolor" : [ 0.101961, 0.121569, 0.172549, 1.0 ],
					"texton" : "Looping",
					"textoncolor" : [ 0.101961, 0.121569, 0.172549, 1.0 ],
					"textovercolor" : [ 0.101961, 0.121569, 0.172549, 1.0 ],
					"textoveroncolor" : [ 0.101961, 0.121569, 0.172549, 1.0 ]
				}

			}
, 			{
				"box" : 				{
					"bgcolor" : [ 0.568627, 0.619608, 0.662745, 1.0 ],
					"bgoncolor" : [ 0.921569, 0.94902, 0.05098, 1.0 ],
					"bgovercolor" : [ 0.568627, 0.619608, 0.662745, 1.0 ],
					"bgoveroncolor" : [ 0.921569, 0.94902, 0.05098, 1.0 ],
					"border" : 1,
					"bordercolor" : [ 0.301961, 0.337255, 0.403922, 1.0 ],
					"borderoncolor" : [ 0.301961, 0.337255, 0.403922, 1.0 ],
					"fontface" : 1,
					"fontname" : "Arial",
					"fontsize" : 10.0,
					"id" : "obj-14",
					"maxclass" : "textbutton",
					"mode" : 1,
					"numinlets" : 1,
					"numoutlets" : 3,
					"outlettype" : [ "", "", "int" ],
					"parameter_enable" : 0,
					"patching_rect" : [ 95.0, 240.0, 75.0, 20.0 ],
					"presentation" : 1,
					"presentation_rect" : [ 0.0, 45.0, 65.0, 15.0 ],
					"prototypename" : "M4L.toggle-yellow",
					"rounded" : 0.0,
					"text" : "Stopped",
					"textcolor" : [ 0.101961, 0.121569, 0.172549, 1.0 ],
					"texton" : "Playing",
					"textoncolor" : [ 0.101961, 0.121569, 0.172549, 1.0 ],
					"textovercolor" : [ 0.101961, 0.121569, 0.172549, 1.0 ],
					"textoveroncolor" : [ 0.101961, 0.121569, 0.172549, 1.0 ]
				}

			}
, 			{
				"box" : 				{
					"bgcolor" : [ 0.568627, 0.619608, 0.662745, 1.0 ],
					"bgoncolor" : [ 0.921569, 0.94902, 0.05098, 1.0 ],
					"bgovercolor" : [ 0.568627, 0.619608, 0.662745, 1.0 ],
					"bgoveroncolor" : [ 0.921569, 0.94902, 0.05098, 1.0 ],
					"border" : 1,
					"bordercolor" : [ 0.301961, 0.337255, 0.403922, 1.0 ],
					"borderoncolor" : [ 0.301961, 0.337255, 0.403922, 1.0 ],
					"fontface" : 1,
					"fontname" : "Arial",
					"fontsize" : 10.0,
					"id" : "obj-12",
					"maxclass" : "textbutton",
					"numinlets" : 1,
					"numoutlets" : 3,
					"outlettype" : [ "", "", "int" ],
					"parameter_enable" : 0,
					"patching_rect" : [ 90.0, 100.0, 65.0, 20.0 ],
					"presentation" : 1,
					"presentation_rect" : [ 0.0, 0.0, 40.0, 15.0 ],
					"prototypename" : "M4L.toggle",
					"rounded" : 0.0,
					"text" : "Open",
					"textcolor" : [ 0.101961, 0.121569, 0.172549, 1.0 ],
					"texton" : "Trig",
					"textoncolor" : [ 0.101961, 0.121569, 0.172549, 1.0 ],
					"textovercolor" : [ 0.101961, 0.121569, 0.172549, 1.0 ],
					"textoveroncolor" : [ 0.101961, 0.121569, 0.172549, 1.0 ]
				}

			}
 ],
		"lines" : [ 			{
				"patchline" : 				{
					"destination" : [ "obj-27", 0 ],
					"disabled" : 0,
					"hidden" : 0,
					"source" : [ "obj-12", 0 ]
				}

			}
, 			{
				"patchline" : 				{
					"destination" : [ "obj-17", 0 ],
					"disabled" : 0,
					"hidden" : 0,
					"source" : [ "obj-14", 0 ]
				}

			}
, 			{
				"patchline" : 				{
					"destination" : [ "obj-18", 0 ],
					"disabled" : 0,
					"hidden" : 0,
					"source" : [ "obj-15", 0 ]
				}

			}
, 			{
				"patchline" : 				{
					"destination" : [ "obj-3", 0 ],
					"disabled" : 0,
					"hidden" : 0,
					"source" : [ "obj-16", 0 ]
				}

			}
, 			{
				"patchline" : 				{
					"destination" : [ "obj-14", 0 ],
					"disabled" : 0,
					"hidden" : 0,
					"source" : [ "obj-17", 0 ]
				}

			}
, 			{
				"patchline" : 				{
					"destination" : [ "obj-15", 0 ],
					"disabled" : 0,
					"hidden" : 0,
					"source" : [ "obj-18", 0 ]
				}

			}
, 			{
				"patchline" : 				{
					"destination" : [ "obj-22", 1 ],
					"disabled" : 0,
					"hidden" : 0,
					"source" : [ "obj-21", 0 ]
				}

			}
, 			{
				"patchline" : 				{
					"destination" : [ "obj-19", 0 ],
					"disabled" : 0,
					"hidden" : 0,
					"source" : [ "obj-22", 0 ]
				}

			}
, 			{
				"patchline" : 				{
					"destination" : [ "obj-16", 0 ],
					"disabled" : 0,
					"hidden" : 0,
					"source" : [ "obj-27", 0 ]
				}

			}
, 			{
				"patchline" : 				{
					"destination" : [ "obj-2", 0 ],
					"disabled" : 0,
					"hidden" : 0,
					"source" : [ "obj-3", 0 ]
				}

			}
, 			{
				"patchline" : 				{
					"destination" : [ "obj-3", 0 ],
					"disabled" : 0,
					"hidden" : 0,
					"source" : [ "obj-4", 0 ]
				}

			}
, 			{
				"patchline" : 				{
					"destination" : [ "obj-22", 0 ],
					"disabled" : 0,
					"hidden" : 0,
					"source" : [ "obj-50", 0 ]
				}

			}
 ]
	}

}
