{
	"patcher" : 	{
		"fileversion" : 1,
		"appversion" : 		{
			"major" : 6,
			"minor" : 1,
			"revision" : 3,
			"architecture" : "x86"
		}
,
		"rect" : [ 551.0, 44.0, 698.0, 710.0 ],
		"bgcolor" : [ 1.0, 1.0, 1.0, 0.0 ],
		"bglocked" : 0,
		"openinpresentation" : 1,
		"default_fontsize" : 12.0,
		"default_fontface" : 0,
		"default_fontname" : "Arial",
		"gridonopen" : 0,
		"gridsize" : [ 5.0, 5.0 ],
		"gridsnaponopen" : 0,
		"statusbarvisible" : 2,
		"toolbarvisible" : 1,
		"boxanimatetime" : 200,
		"imprint" : 0,
		"enablehscroll" : 1,
		"enablevscroll" : 1,
		"devicewidth" : 0.0,
		"description" : "",
		"digest" : "",
		"tags" : "",
		"boxes" : [ 			{
				"box" : 				{
					"bgcolor" : [ 0.568627, 0.619608, 0.662745, 1.0 ],
					"bgoncolor" : [ 0.921569, 0.94902, 0.05098, 1.0 ],
					"bgovercolor" : [ 0.568627, 0.619608, 0.662745, 1.0 ],
					"bgoveroncolor" : [ 0.921569, 0.94902, 0.05098, 1.0 ],
					"border" : 1,
					"bordercolor" : [ 0.301961, 0.337255, 0.403922, 1.0 ],
					"borderoncolor" : [ 0.301961, 0.337255, 0.403922, 1.0 ],
					"fontface" : 1,
					"fontname" : "Arial",
					"fontsize" : 10.0,
					"id" : "obj-2",
					"maxclass" : "textbutton",
					"numinlets" : 1,
					"numoutlets" : 3,
					"outlettype" : [ "", "", "int" ],
					"parameter_enable" : 0,
					"patching_rect" : [ 10.0, 580.0, 40.0, 15.0 ],
					"presentation" : 1,
					"presentation_rect" : [ 130.0, 5.0, 40.0, 15.0 ],
					"prototypename" : "M4L.toggle-yellow",
					"rounded" : 0.0,
					"text" : "Clear",
					"textcolor" : [ 0.101961, 0.121569, 0.172549, 1.0 ],
					"texton" : "Active",
					"textoncolor" : [ 0.101961, 0.121569, 0.172549, 1.0 ],
					"textovercolor" : [ 0.101961, 0.121569, 0.172549, 1.0 ],
					"textoveroncolor" : [ 0.101961, 0.121569, 0.172549, 1.0 ]
				}

			}
, 			{
				"box" : 				{
					"fontname" : "Arial",
					"fontsize" : 12.0,
					"id" : "obj-14",
					"maxclass" : "newobj",
					"numinlets" : 3,
					"numoutlets" : 3,
					"outlettype" : [ "", "", "" ],
					"patching_rect" : [ 60.0, 580.0, 188.0, 20.0 ],
					"text" : "mxj oovu.Proxy #1 clear"
				}

			}
, 			{
				"box" : 				{
					"fontname" : "Arial",
					"fontsize" : 12.0,
					"id" : "obj-1",
					"maxclass" : "newobj",
					"numinlets" : 2,
					"numoutlets" : 2,
					"outlettype" : [ "", "" ],
					"patching_rect" : [ 10.0, 60.0, 100.0, 20.0 ],
					"text" : "routepass name"
				}

			}
, 			{
				"box" : 				{
					"align" : 2,
					"bgcolor" : [ 0.666667, 0.698039, 0.717647, 0.0 ],
					"bgoncolor" : [ 0.666667, 0.698039, 0.717647, 0.0 ],
					"bgovercolor" : [ 0.666667, 0.698039, 0.717647, 0.0 ],
					"bgoveroncolor" : [ 0.666667, 0.698039, 0.717647, 0.0 ],
					"border" : 1,
					"bordercolor" : [ 0.666667, 0.698039, 0.717647, 0.0 ],
					"borderoncolor" : [ 0.666667, 0.698039, 0.717647, 0.0 ],
					"fontname" : "Arial Bold",
					"fontsize" : 9.0,
					"id" : "obj-47",
					"ignoreclick" : 1,
					"maxclass" : "textbutton",
					"mode" : 1,
					"numinlets" : 1,
					"numoutlets" : 3,
					"outlettype" : [ "", "", "int" ],
					"parameter_enable" : 0,
					"patching_rect" : [ 355.0, 614.0, 210.0, 20.0 ],
					"presentation" : 1,
					"presentation_rect" : [ 90.0, 135.0, 30.0, 15.0 ],
					"prototypename" : "M4L.display",
					"rounded" : 0.0,
					"text" : "G",
					"textcolor" : [ 1.0, 1.0, 1.0, 1.0 ],
					"texton" : "Text",
					"textovercolor" : [ 1.0, 1.0, 1.0, 1.0 ],
					"textoveroncolor" : [ 1.0, 1.0, 1.0, 1.0 ]
				}

			}
, 			{
				"box" : 				{
					"align" : 2,
					"bgcolor" : [ 0.666667, 0.698039, 0.717647, 0.0 ],
					"bgoncolor" : [ 0.666667, 0.698039, 0.717647, 0.0 ],
					"bgovercolor" : [ 0.666667, 0.698039, 0.717647, 0.0 ],
					"bgoveroncolor" : [ 0.666667, 0.698039, 0.717647, 0.0 ],
					"border" : 1,
					"bordercolor" : [ 0.666667, 0.698039, 0.717647, 0.0 ],
					"borderoncolor" : [ 0.666667, 0.698039, 0.717647, 0.0 ],
					"fontname" : "Arial Bold",
					"fontsize" : 9.0,
					"id" : "obj-46",
					"ignoreclick" : 1,
					"maxclass" : "textbutton",
					"mode" : 1,
					"numinlets" : 1,
					"numoutlets" : 3,
					"outlettype" : [ "", "", "int" ],
					"parameter_enable" : 0,
					"patching_rect" : [ 357.0, 556.0, 210.0, 20.0 ],
					"presentation" : 1,
					"presentation_rect" : [ 90.0, 75.0, 30.0, 15.0 ],
					"prototypename" : "M4L.display",
					"rounded" : 0.0,
					"text" : "G",
					"textcolor" : [ 1.0, 1.0, 1.0, 1.0 ],
					"texton" : "Text",
					"textovercolor" : [ 1.0, 1.0, 1.0, 1.0 ],
					"textoveroncolor" : [ 1.0, 1.0, 1.0, 1.0 ]
				}

			}
, 			{
				"box" : 				{
					"align" : 0,
					"bgcolor" : [ 0.666667, 0.698039, 0.717647, 0.0 ],
					"bgoncolor" : [ 0.666667, 0.698039, 0.717647, 0.0 ],
					"bgovercolor" : [ 0.666667, 0.698039, 0.717647, 0.0 ],
					"bgoveroncolor" : [ 0.666667, 0.698039, 0.717647, 0.0 ],
					"border" : 1,
					"bordercolor" : [ 0.666667, 0.698039, 0.717647, 0.0 ],
					"borderoncolor" : [ 0.666667, 0.698039, 0.717647, 0.0 ],
					"fontname" : "Arial Bold",
					"fontsize" : 9.0,
					"id" : "obj-45",
					"ignoreclick" : 1,
					"maxclass" : "textbutton",
					"mode" : 1,
					"numinlets" : 1,
					"numoutlets" : 3,
					"outlettype" : [ "", "", "int" ],
					"parameter_enable" : 0,
					"patching_rect" : [ 320.0, 616.0, 210.0, 20.0 ],
					"presentation" : 1,
					"presentation_rect" : [ 55.0, 135.0, 30.0, 15.0 ],
					"prototypename" : "M4L.display",
					"rounded" : 0.0,
					"text" : "D",
					"textcolor" : [ 1.0, 1.0, 1.0, 1.0 ],
					"texton" : "Text",
					"textovercolor" : [ 1.0, 1.0, 1.0, 1.0 ],
					"textoveroncolor" : [ 1.0, 1.0, 1.0, 1.0 ]
				}

			}
, 			{
				"box" : 				{
					"align" : 0,
					"bgcolor" : [ 0.666667, 0.698039, 0.717647, 0.0 ],
					"bgoncolor" : [ 0.666667, 0.698039, 0.717647, 0.0 ],
					"bgovercolor" : [ 0.666667, 0.698039, 0.717647, 0.0 ],
					"bgoveroncolor" : [ 0.666667, 0.698039, 0.717647, 0.0 ],
					"border" : 1,
					"bordercolor" : [ 0.666667, 0.698039, 0.717647, 0.0 ],
					"borderoncolor" : [ 0.666667, 0.698039, 0.717647, 0.0 ],
					"fontname" : "Arial Bold",
					"fontsize" : 9.0,
					"id" : "obj-44",
					"ignoreclick" : 1,
					"maxclass" : "textbutton",
					"mode" : 1,
					"numinlets" : 1,
					"numoutlets" : 3,
					"outlettype" : [ "", "", "int" ],
					"parameter_enable" : 0,
					"patching_rect" : [ 320.0, 553.0, 210.0, 20.0 ],
					"presentation" : 1,
					"presentation_rect" : [ 55.0, 75.0, 30.0, 15.0 ],
					"prototypename" : "M4L.display",
					"rounded" : 0.0,
					"text" : "D",
					"textcolor" : [ 1.0, 1.0, 1.0, 1.0 ],
					"texton" : "Text",
					"textovercolor" : [ 1.0, 1.0, 1.0, 1.0 ],
					"textoveroncolor" : [ 1.0, 1.0, 1.0, 1.0 ]
				}

			}
, 			{
				"box" : 				{
					"bgcolor" : [ 0.666667, 0.698039, 0.717647, 0.0 ],
					"bgoncolor" : [ 0.666667, 0.698039, 0.717647, 0.0 ],
					"bgovercolor" : [ 0.666667, 0.698039, 0.717647, 0.0 ],
					"bgoveroncolor" : [ 0.666667, 0.698039, 0.717647, 0.0 ],
					"border" : 1,
					"bordercolor" : [ 0.666667, 0.698039, 0.717647, 0.0 ],
					"borderoncolor" : [ 0.666667, 0.698039, 0.717647, 0.0 ],
					"fontname" : "Arial Bold",
					"fontsize" : 9.0,
					"id" : "obj-43",
					"ignoreclick" : 1,
					"maxclass" : "textbutton",
					"mode" : 1,
					"numinlets" : 1,
					"numoutlets" : 3,
					"outlettype" : [ "", "", "int" ],
					"parameter_enable" : 0,
					"patching_rect" : [ 378.0, 614.0, 210.0, 20.0 ],
					"presentation" : 1,
					"presentation_rect" : [ 110.0, 160.0, 60.0, 25.0 ],
					"prototypename" : "M4L.display",
					"rounded" : 0.0,
					"text" : "Stutter: Transpose",
					"textcolor" : [ 1.0, 1.0, 1.0, 1.0 ],
					"texton" : "Text",
					"textovercolor" : [ 1.0, 1.0, 1.0, 1.0 ],
					"textoveroncolor" : [ 1.0, 1.0, 1.0, 1.0 ],
					"truncate" : 0
				}

			}
, 			{
				"box" : 				{
					"bgcolor" : [ 0.666667, 0.698039, 0.717647, 0.0 ],
					"bgoncolor" : [ 0.666667, 0.698039, 0.717647, 0.0 ],
					"bgovercolor" : [ 0.666667, 0.698039, 0.717647, 0.0 ],
					"bgoveroncolor" : [ 0.666667, 0.698039, 0.717647, 0.0 ],
					"border" : 1,
					"bordercolor" : [ 0.666667, 0.698039, 0.717647, 0.0 ],
					"borderoncolor" : [ 0.666667, 0.698039, 0.717647, 0.0 ],
					"fontname" : "Arial Bold",
					"fontsize" : 9.0,
					"id" : "obj-42",
					"ignoreclick" : 1,
					"maxclass" : "textbutton",
					"mode" : 1,
					"numinlets" : 1,
					"numoutlets" : 3,
					"outlettype" : [ "", "", "int" ],
					"parameter_enable" : 0,
					"patching_rect" : [ 335.0, 614.0, 210.0, 20.0 ],
					"presentation" : 1,
					"presentation_rect" : [ 70.0, 160.0, 40.0, 25.0 ],
					"prototypename" : "M4L.display",
					"rounded" : 0.0,
					"text" : "Stutter: Repeat",
					"textcolor" : [ 1.0, 1.0, 1.0, 1.0 ],
					"texton" : "Text",
					"textovercolor" : [ 1.0, 1.0, 1.0, 1.0 ],
					"textoveroncolor" : [ 1.0, 1.0, 1.0, 1.0 ],
					"truncate" : 0
				}

			}
, 			{
				"box" : 				{
					"bgcolor" : [ 0.666667, 0.698039, 0.717647, 0.0 ],
					"bgoncolor" : [ 0.666667, 0.698039, 0.717647, 0.0 ],
					"bgovercolor" : [ 0.666667, 0.698039, 0.717647, 0.0 ],
					"bgoveroncolor" : [ 0.666667, 0.698039, 0.717647, 0.0 ],
					"border" : 1,
					"bordercolor" : [ 0.666667, 0.698039, 0.717647, 0.0 ],
					"borderoncolor" : [ 0.666667, 0.698039, 0.717647, 0.0 ],
					"fontname" : "Arial Bold",
					"fontsize" : 9.0,
					"id" : "obj-41",
					"ignoreclick" : 1,
					"maxclass" : "textbutton",
					"mode" : 1,
					"numinlets" : 1,
					"numoutlets" : 3,
					"outlettype" : [ "", "", "int" ],
					"parameter_enable" : 0,
					"patching_rect" : [ 330.0, 605.0, 210.0, 20.0 ],
					"presentation" : 1,
					"presentation_rect" : [ 5.0, 115.0, 165.0, 15.0 ],
					"prototypename" : "M4L.display",
					"rounded" : 0.0,
					"text" : "Feedback: Gain",
					"textcolor" : [ 1.0, 1.0, 1.0, 1.0 ],
					"texton" : "Text",
					"textovercolor" : [ 1.0, 1.0, 1.0, 1.0 ],
					"textoveroncolor" : [ 1.0, 1.0, 1.0, 1.0 ]
				}

			}
, 			{
				"box" : 				{
					"bgcolor" : [ 0.666667, 0.698039, 0.717647, 0.0 ],
					"bgoncolor" : [ 0.666667, 0.698039, 0.717647, 0.0 ],
					"bgovercolor" : [ 0.666667, 0.698039, 0.717647, 0.0 ],
					"bgoveroncolor" : [ 0.666667, 0.698039, 0.717647, 0.0 ],
					"border" : 1,
					"bordercolor" : [ 0.666667, 0.698039, 0.717647, 0.0 ],
					"borderoncolor" : [ 0.666667, 0.698039, 0.717647, 0.0 ],
					"fontname" : "Arial Bold",
					"fontsize" : 9.0,
					"id" : "obj-20",
					"ignoreclick" : 1,
					"maxclass" : "textbutton",
					"mode" : 1,
					"numinlets" : 1,
					"numoutlets" : 3,
					"outlettype" : [ "", "", "int" ],
					"parameter_enable" : 0,
					"patching_rect" : [ 330.0, 584.0, 210.0, 20.0 ],
					"presentation" : 1,
					"presentation_rect" : [ 5.0, 95.0, 165.0, 15.0 ],
					"prototypename" : "M4L.display",
					"rounded" : 0.0,
					"text" : "Feedback: Delay",
					"textcolor" : [ 1.0, 1.0, 1.0, 1.0 ],
					"texton" : "Text",
					"textovercolor" : [ 1.0, 1.0, 1.0, 1.0 ],
					"textoveroncolor" : [ 1.0, 1.0, 1.0, 1.0 ]
				}

			}
, 			{
				"box" : 				{
					"bgcolor" : [ 0.666667, 0.698039, 0.717647, 0.0 ],
					"bgoncolor" : [ 0.666667, 0.698039, 0.717647, 0.0 ],
					"bgovercolor" : [ 0.666667, 0.698039, 0.717647, 0.0 ],
					"bgoveroncolor" : [ 0.666667, 0.698039, 0.717647, 0.0 ],
					"border" : 1,
					"bordercolor" : [ 0.666667, 0.698039, 0.717647, 0.0 ],
					"borderoncolor" : [ 0.666667, 0.698039, 0.717647, 0.0 ],
					"fontname" : "Arial Bold",
					"fontsize" : 9.0,
					"id" : "obj-3",
					"ignoreclick" : 1,
					"maxclass" : "textbutton",
					"mode" : 1,
					"numinlets" : 1,
					"numoutlets" : 3,
					"outlettype" : [ "", "", "int" ],
					"parameter_enable" : 0,
					"patching_rect" : [ 330.0, 545.0, 210.0, 20.0 ],
					"presentation" : 1,
					"presentation_rect" : [ 5.0, 55.0, 165.0, 15.0 ],
					"prototypename" : "M4L.display",
					"rounded" : 0.0,
					"text" : "Allpass: Gain",
					"textcolor" : [ 1.0, 1.0, 1.0, 1.0 ],
					"texton" : "Text",
					"textovercolor" : [ 1.0, 1.0, 1.0, 1.0 ],
					"textoveroncolor" : [ 1.0, 1.0, 1.0, 1.0 ]
				}

			}
, 			{
				"box" : 				{
					"bgcolor" : [ 0.666667, 0.698039, 0.717647, 0.0 ],
					"bgoncolor" : [ 0.666667, 0.698039, 0.717647, 0.0 ],
					"bgovercolor" : [ 0.666667, 0.698039, 0.717647, 0.0 ],
					"bgoveroncolor" : [ 0.666667, 0.698039, 0.717647, 0.0 ],
					"border" : 1,
					"bordercolor" : [ 0.666667, 0.698039, 0.717647, 0.0 ],
					"borderoncolor" : [ 0.666667, 0.698039, 0.717647, 0.0 ],
					"fontname" : "Arial Bold",
					"fontsize" : 9.0,
					"id" : "obj-69",
					"ignoreclick" : 1,
					"maxclass" : "textbutton",
					"mode" : 1,
					"numinlets" : 1,
					"numoutlets" : 3,
					"outlettype" : [ "", "", "int" ],
					"parameter_enable" : 0,
					"patching_rect" : [ 315.0, 30.0, 210.0, 20.0 ],
					"presentation" : 1,
					"presentation_rect" : [ 5.0, 35.0, 165.0, 15.0 ],
					"prototypename" : "M4L.display",
					"rounded" : 0.0,
					"text" : "Allpass: Delay",
					"textcolor" : [ 1.0, 1.0, 1.0, 1.0 ],
					"texton" : "Text",
					"textovercolor" : [ 1.0, 1.0, 1.0, 1.0 ],
					"textoveroncolor" : [ 1.0, 1.0, 1.0, 1.0 ]
				}

			}
, 			{
				"box" : 				{
					"bgcolor" : [ 0.666667, 0.698039, 0.717647, 0.0 ],
					"bgoncolor" : [ 0.666667, 0.698039, 0.717647, 0.0 ],
					"bgovercolor" : [ 0.666667, 0.698039, 0.717647, 0.0 ],
					"bgoveroncolor" : [ 0.666667, 0.698039, 0.717647, 0.0 ],
					"border" : 1,
					"bordercolor" : [ 0.666667, 0.698039, 0.717647, 0.0 ],
					"borderoncolor" : [ 0.666667, 0.698039, 0.717647, 0.0 ],
					"fontname" : "Arial Bold",
					"fontsize" : 9.0,
					"id" : "obj-67",
					"ignoreclick" : 1,
					"maxclass" : "textbutton",
					"mode" : 1,
					"numinlets" : 1,
					"numoutlets" : 3,
					"outlettype" : [ "", "", "int" ],
					"parameter_enable" : 0,
					"patching_rect" : [ 315.0, 330.0, 210.0, 20.0 ],
					"presentation" : 1,
					"presentation_rect" : [ 10.0, 160.0, 55.0, 25.0 ],
					"prototypename" : "M4L.display",
					"rounded" : 0.0,
					"text" : "Stutter: Length",
					"textcolor" : [ 1.0, 1.0, 1.0, 1.0 ],
					"texton" : "Text",
					"textovercolor" : [ 1.0, 1.0, 1.0, 1.0 ],
					"textoveroncolor" : [ 1.0, 1.0, 1.0, 1.0 ],
					"truncate" : 0
				}

			}
, 			{
				"box" : 				{
					"appearance" : 1,
					"id" : "obj-49",
					"maxclass" : "live.numbox",
					"numinlets" : 1,
					"numoutlets" : 2,
					"outlettype" : [ "", "float" ],
					"parameter_enable" : 1,
					"patching_rect" : [ 310.0, 485.0, 43.0, 15.0 ],
					"presentation" : 1,
					"presentation_rect" : [ 115.0, 185.0, 50.0, 15.0 ],
					"prototypename" : "transp",
					"saved_attribute_attributes" : 					{
						"valueof" : 						{
							"parameter_linknames" : 1,
							"parameter_longname" : "live.numbox[39]",
							"parameter_shortname" : "live.numbox[4]",
							"parameter_type" : 0,
							"parameter_mmin" : -24.0,
							"parameter_mmax" : 24.0,
							"parameter_initial_enable" : 1,
							"parameter_initial" : [ 0.0 ],
							"parameter_unitstyle" : 7,
							"parameter_speedlim" : 0.0
						}

					}
,
					"varname" : "live.numbox[39]"
				}

			}
, 			{
				"box" : 				{
					"fontname" : "Arial",
					"fontsize" : 12.0,
					"id" : "obj-48",
					"maxclass" : "newobj",
					"numinlets" : 3,
					"numoutlets" : 3,
					"outlettype" : [ "", "", "" ],
					"patching_rect" : [ 360.0, 485.0, 239.0, 20.0 ],
					"text" : "mxj oovu.Proxy #1 stutter/transposition"
				}

			}
, 			{
				"box" : 				{
					"appearance" : 2,
					"id" : "obj-40",
					"maxclass" : "live.numbox",
					"numinlets" : 1,
					"numoutlets" : 2,
					"outlettype" : [ "", "float" ],
					"parameter_enable" : 1,
					"patching_rect" : [ 310.0, 390.0, 43.0, 15.0 ],
					"presentation" : 1,
					"presentation_rect" : [ 70.0, 185.0, 40.0, 15.0 ],
					"prototypename" : "amount",
					"saved_attribute_attributes" : 					{
						"valueof" : 						{
							"parameter_linknames" : 1,
							"parameter_longname" : "live.numbox[40]",
							"parameter_shortname" : "live.numbox[4]",
							"parameter_type" : 0,
							"parameter_mmax" : 100.0,
							"parameter_initial_enable" : 1,
							"parameter_initial" : [ 0 ],
							"parameter_unitstyle" : 5,
							"parameter_speedlim" : 0.0
						}

					}
,
					"varname" : "live.numbox[40]"
				}

			}
, 			{
				"box" : 				{
					"fontname" : "Arial",
					"fontsize" : 12.0,
					"id" : "obj-39",
					"maxclass" : "newobj",
					"numinlets" : 3,
					"numoutlets" : 3,
					"outlettype" : [ "", "", "" ],
					"patching_rect" : [ 360.0, 390.0, 207.0, 20.0 ],
					"text" : "mxj oovu.Proxy #1 stutter/repeat"
				}

			}
, 			{
				"box" : 				{
					"appearance" : 2,
					"id" : "obj-38",
					"maxclass" : "live.numbox",
					"numinlets" : 1,
					"numoutlets" : 2,
					"outlettype" : [ "", "float" ],
					"parameter_enable" : 1,
					"patching_rect" : [ 310.0, 360.0, 43.0, 15.0 ],
					"presentation" : 1,
					"presentation_rect" : [ 10.0, 185.0, 55.0, 15.0 ],
					"prototypename" : "time",
					"saved_attribute_attributes" : 					{
						"valueof" : 						{
							"parameter_linknames" : 1,
							"parameter_longname" : "live.numbox[41]",
							"parameter_shortname" : "live.numbox[4]",
							"parameter_type" : 0,
							"parameter_mmax" : 500.0,
							"parameter_initial_enable" : 1,
							"parameter_initial" : [ 0 ],
							"parameter_unitstyle" : 2,
							"parameter_exponent" : 3.333,
							"parameter_speedlim" : 0.0
						}

					}
,
					"textcolor" : [ 0.101961, 0.121569, 0.172549, 1.0 ],
					"varname" : "live.numbox[41]"
				}

			}
, 			{
				"box" : 				{
					"fontname" : "Arial",
					"fontsize" : 12.0,
					"id" : "obj-37",
					"maxclass" : "newobj",
					"numinlets" : 3,
					"numoutlets" : 3,
					"outlettype" : [ "", "", "" ],
					"patching_rect" : [ 360.0, 360.0, 207.0, 20.0 ],
					"text" : "mxj oovu.Proxy #1 stutter/length"
				}

			}
, 			{
				"box" : 				{
					"bgcolor" : [ 0.094118, 0.113725, 0.137255, 1.0 ],
					"bordercolor" : [ 0.0, 0.0, 0.0, 1.0 ],
					"drawline" : 0,
					"fgcolor" : [ 1.0, 0.603922, 0.0, 1.0 ],
					"floatoutput" : 1,
					"id" : "obj-29",
					"listmode" : 1,
					"maxclass" : "rslider",
					"numinlets" : 2,
					"numoutlets" : 2,
					"outlettype" : [ "", "" ],
					"parameter_enable" : 0,
					"patching_rect" : [ 310.0, 300.0, 40.0, 15.0 ],
					"presentation" : 1,
					"presentation_rect" : [ 5.0, 115.0, 165.0, 15.0 ],
					"prototypename" : "M4L.horizontal-orange",
					"size" : 1.0
				}

			}
, 			{
				"box" : 				{
					"bgcolor" : [ 0.094118, 0.113725, 0.137255, 1.0 ],
					"bordercolor" : [ 0.0, 0.0, 0.0, 1.0 ],
					"drawline" : 0,
					"fgcolor" : [ 1.0, 0.603922, 0.0, 1.0 ],
					"floatoutput" : 1,
					"id" : "obj-30",
					"listmode" : 1,
					"maxclass" : "rslider",
					"numinlets" : 2,
					"numoutlets" : 2,
					"outlettype" : [ "", "" ],
					"parameter_enable" : 0,
					"patching_rect" : [ 310.0, 240.0, 40.0, 15.0 ],
					"presentation" : 1,
					"presentation_rect" : [ 5.0, 95.0, 165.0, 15.0 ],
					"prototypename" : "M4L.horizontal-orange",
					"size" : 1.0
				}

			}
, 			{
				"box" : 				{
					"appearance" : 2,
					"id" : "obj-31",
					"maxclass" : "live.numbox",
					"numinlets" : 1,
					"numoutlets" : 2,
					"outlettype" : [ "", "float" ],
					"parameter_enable" : 1,
					"patching_rect" : [ 310.0, 270.0, 43.0, 15.0 ],
					"presentation" : 1,
					"presentation_rect" : [ 120.0, 135.0, 50.0, 15.0 ],
					"prototypename" : "freq",
					"saved_attribute_attributes" : 					{
						"valueof" : 						{
							"parameter_linknames" : 1,
							"parameter_longname" : "live.numbox[42]",
							"parameter_shortname" : "live.numbox[4]",
							"parameter_type" : 0,
							"parameter_mmax" : 20.0,
							"parameter_initial_enable" : 1,
							"parameter_initial" : [ 0 ],
							"parameter_unitstyle" : 3,
							"parameter_exponent" : 3.333333,
							"parameter_speedlim" : 0.0
						}

					}
,
					"varname" : "live.numbox[42]"
				}

			}
, 			{
				"box" : 				{
					"fontname" : "Arial",
					"fontsize" : 12.0,
					"id" : "obj-32",
					"maxclass" : "newobj",
					"numinlets" : 3,
					"numoutlets" : 3,
					"outlettype" : [ "", "", "" ],
					"patching_rect" : [ 360.0, 300.0, 243.0, 20.0 ],
					"text" : "mxj oovu.Proxy #1 feedback/gain/range"
				}

			}
, 			{
				"box" : 				{
					"fontname" : "Arial",
					"fontsize" : 12.0,
					"id" : "obj-33",
					"maxclass" : "newobj",
					"numinlets" : 3,
					"numoutlets" : 3,
					"outlettype" : [ "", "", "" ],
					"patching_rect" : [ 360.0, 270.0, 265.0, 20.0 ],
					"text" : "mxj oovu.Proxy #1 feedback/gain/frequency"
				}

			}
, 			{
				"box" : 				{
					"fontname" : "Arial",
					"fontsize" : 12.0,
					"id" : "obj-34",
					"maxclass" : "newobj",
					"numinlets" : 3,
					"numoutlets" : 3,
					"outlettype" : [ "", "", "" ],
					"patching_rect" : [ 360.0, 240.0, 249.0, 20.0 ],
					"text" : "mxj oovu.Proxy #1 feedback/delay/range"
				}

			}
, 			{
				"box" : 				{
					"fontname" : "Arial",
					"fontsize" : 12.0,
					"id" : "obj-35",
					"maxclass" : "newobj",
					"numinlets" : 3,
					"numoutlets" : 3,
					"outlettype" : [ "", "", "" ],
					"patching_rect" : [ 360.0, 210.0, 271.0, 20.0 ],
					"text" : "mxj oovu.Proxy #1 feedback/delay/frequency"
				}

			}
, 			{
				"box" : 				{
					"appearance" : 2,
					"id" : "obj-36",
					"maxclass" : "live.numbox",
					"numinlets" : 1,
					"numoutlets" : 2,
					"outlettype" : [ "", "float" ],
					"parameter_enable" : 1,
					"patching_rect" : [ 310.0, 210.0, 43.0, 15.0 ],
					"presentation" : 1,
					"presentation_rect" : [ 5.0, 135.0, 50.0, 15.0 ],
					"prototypename" : "freq",
					"saved_attribute_attributes" : 					{
						"valueof" : 						{
							"parameter_linknames" : 1,
							"parameter_longname" : "live.numbox[43]",
							"parameter_shortname" : "live.numbox[4]",
							"parameter_type" : 0,
							"parameter_mmax" : 20.0,
							"parameter_initial_enable" : 1,
							"parameter_initial" : [ 0 ],
							"parameter_unitstyle" : 3,
							"parameter_exponent" : 3.333333,
							"parameter_speedlim" : 0.0
						}

					}
,
					"varname" : "live.numbox[43]"
				}

			}
, 			{
				"box" : 				{
					"bgcolor" : [ 0.094118, 0.113725, 0.137255, 1.0 ],
					"bordercolor" : [ 0.0, 0.0, 0.0, 1.0 ],
					"drawline" : 0,
					"fgcolor" : [ 1.0, 0.603922, 0.0, 1.0 ],
					"floatoutput" : 1,
					"id" : "obj-28",
					"listmode" : 1,
					"maxclass" : "rslider",
					"numinlets" : 2,
					"numoutlets" : 2,
					"outlettype" : [ "", "" ],
					"parameter_enable" : 0,
					"patching_rect" : [ 310.0, 150.0, 40.0, 15.0 ],
					"presentation" : 1,
					"presentation_rect" : [ 5.0, 55.0, 165.0, 15.0 ],
					"prototypename" : "M4L.horizontal-orange",
					"size" : 1.0
				}

			}
, 			{
				"box" : 				{
					"bgcolor" : [ 0.094118, 0.113725, 0.137255, 1.0 ],
					"bordercolor" : [ 0.0, 0.0, 0.0, 1.0 ],
					"drawline" : 0,
					"fgcolor" : [ 1.0, 0.603922, 0.0, 1.0 ],
					"floatoutput" : 1,
					"id" : "obj-27",
					"listmode" : 1,
					"maxclass" : "rslider",
					"numinlets" : 2,
					"numoutlets" : 2,
					"outlettype" : [ "", "" ],
					"parameter_enable" : 0,
					"patching_rect" : [ 310.0, 90.0, 40.0, 15.0 ],
					"presentation" : 1,
					"presentation_rect" : [ 5.0, 35.0, 165.0, 15.0 ],
					"prototypename" : "M4L.horizontal-orange",
					"size" : 1.0
				}

			}
, 			{
				"box" : 				{
					"appearance" : 2,
					"id" : "obj-26",
					"maxclass" : "live.numbox",
					"numinlets" : 1,
					"numoutlets" : 2,
					"outlettype" : [ "", "float" ],
					"parameter_enable" : 1,
					"patching_rect" : [ 310.0, 120.0, 43.0, 15.0 ],
					"presentation" : 1,
					"presentation_rect" : [ 120.0, 75.0, 50.0, 15.0 ],
					"prototypename" : "freq",
					"saved_attribute_attributes" : 					{
						"valueof" : 						{
							"parameter_linknames" : 1,
							"parameter_longname" : "live.numbox[44]",
							"parameter_shortname" : "live.numbox[4]",
							"parameter_type" : 0,
							"parameter_mmax" : 20.0,
							"parameter_initial_enable" : 1,
							"parameter_initial" : [ 0 ],
							"parameter_unitstyle" : 3,
							"parameter_exponent" : 3.333333,
							"parameter_speedlim" : 0.0
						}

					}
,
					"varname" : "live.numbox[44]"
				}

			}
, 			{
				"box" : 				{
					"fontname" : "Arial",
					"fontsize" : 12.0,
					"id" : "obj-25",
					"maxclass" : "newobj",
					"numinlets" : 3,
					"numoutlets" : 3,
					"outlettype" : [ "", "", "" ],
					"patching_rect" : [ 360.0, 150.0, 232.0, 20.0 ],
					"text" : "mxj oovu.Proxy #1 allpass/gain/range"
				}

			}
, 			{
				"box" : 				{
					"fontname" : "Arial",
					"fontsize" : 12.0,
					"id" : "obj-24",
					"maxclass" : "newobj",
					"numinlets" : 3,
					"numoutlets" : 3,
					"outlettype" : [ "", "", "" ],
					"patching_rect" : [ 360.0, 120.0, 253.0, 20.0 ],
					"text" : "mxj oovu.Proxy #1 allpass/gain/frequency"
				}

			}
, 			{
				"box" : 				{
					"fontname" : "Arial",
					"fontsize" : 12.0,
					"id" : "obj-23",
					"maxclass" : "newobj",
					"numinlets" : 3,
					"numoutlets" : 3,
					"outlettype" : [ "", "", "" ],
					"patching_rect" : [ 360.0, 90.0, 238.0, 20.0 ],
					"text" : "mxj oovu.Proxy #1 allpass/delay/range"
				}

			}
, 			{
				"box" : 				{
					"fontname" : "Arial",
					"fontsize" : 12.0,
					"id" : "obj-22",
					"maxclass" : "newobj",
					"numinlets" : 3,
					"numoutlets" : 3,
					"outlettype" : [ "", "", "" ],
					"patching_rect" : [ 360.0, 60.0, 259.0, 20.0 ],
					"text" : "mxj oovu.Proxy #1 allpass/delay/frequency"
				}

			}
, 			{
				"box" : 				{
					"appearance" : 2,
					"id" : "obj-21",
					"maxclass" : "live.numbox",
					"numinlets" : 1,
					"numoutlets" : 2,
					"outlettype" : [ "", "float" ],
					"parameter_enable" : 1,
					"patching_rect" : [ 310.0, 60.0, 43.0, 15.0 ],
					"presentation" : 1,
					"presentation_rect" : [ 5.0, 75.0, 50.0, 15.0 ],
					"prototypename" : "freq",
					"saved_attribute_attributes" : 					{
						"valueof" : 						{
							"parameter_linknames" : 1,
							"parameter_longname" : "live.numbox[12]",
							"parameter_shortname" : "live.numbox[4]",
							"parameter_type" : 0,
							"parameter_mmax" : 20.0,
							"parameter_initial_enable" : 1,
							"parameter_initial" : [ 0 ],
							"parameter_unitstyle" : 3,
							"parameter_exponent" : 3.333333,
							"parameter_speedlim" : 0.0
						}

					}
,
					"varname" : "live.numbox[12]"
				}

			}
, 			{
				"box" : 				{
					"fontname" : "Arial",
					"fontsize" : 12.0,
					"id" : "obj-18",
					"maxclass" : "newobj",
					"numinlets" : 1,
					"numoutlets" : 0,
					"patching_rect" : [ 50.0, 470.0, 168.0, 20.0 ],
					"text" : "oovu.gui.send.dynamic #1"
				}

			}
, 			{
				"box" : 				{
					"bgcolor" : [ 0.568627, 0.619608, 0.662745, 1.0 ],
					"bgoncolor" : [ 1.0, 0.8, 0.4, 1.0 ],
					"bgovercolor" : [ 0.568627, 0.619608, 0.662745, 1.0 ],
					"bgoveroncolor" : [ 0.921569, 0.94902, 0.05098, 1.0 ],
					"border" : 1,
					"bordercolor" : [ 0.301961, 0.337255, 0.403922, 1.0 ],
					"borderoncolor" : [ 0.301961, 0.337255, 0.403922, 1.0 ],
					"fontface" : 1,
					"fontname" : "Arial",
					"fontsize" : 10.0,
					"id" : "obj-19",
					"maxclass" : "textbutton",
					"numinlets" : 1,
					"numoutlets" : 3,
					"outlettype" : [ "", "", "int" ],
					"parameter_enable" : 0,
					"patching_rect" : [ 10.0, 475.0, 32.0, 15.0 ],
					"presentation" : 1,
					"presentation_rect" : [ 175.0, 120.0, 60.0, 15.0 ],
					"prototypename" : "M4L.toggle",
					"rounded" : 0.0,
					"text" : "Sends",
					"textcolor" : [ 0.101961, 0.121569, 0.172549, 1.0 ],
					"texton" : "Trig",
					"textoncolor" : [ 0.101961, 0.121569, 0.172549, 1.0 ],
					"textovercolor" : [ 0.101961, 0.121569, 0.172549, 1.0 ],
					"textoveroncolor" : [ 0.101961, 0.121569, 0.172549, 1.0 ]
				}

			}
, 			{
				"box" : 				{
					"id" : "obj-204",
					"maxclass" : "live.numbox",
					"numinlets" : 1,
					"numoutlets" : 2,
					"outlettype" : [ "", "float" ],
					"parameter_enable" : 1,
					"patching_rect" : [ 20.0, 420.0, 115.0, 15.0 ],
					"presentation" : 1,
					"presentation_rect" : [ 175.0, 30.0, 60.0, 15.0 ],
					"saved_attribute_attributes" : 					{
						"valueof" : 						{
							"parameter_longname" : "live.numbox[46]",
							"parameter_shortname" : "live.numbox",
							"parameter_type" : 1,
							"parameter_mmin" : 1.0,
							"parameter_mmax" : 8.0,
							"parameter_unitstyle" : 9,
							"parameter_units" : "CH"
						}

					}
,
					"varname" : "live.numbox"
				}

			}
, 			{
				"box" : 				{
					"fontname" : "Arial",
					"fontsize" : 12.0,
					"id" : "obj-16",
					"maxclass" : "newobj",
					"numinlets" : 3,
					"numoutlets" : 3,
					"outlettype" : [ "", "", "" ],
					"patching_rect" : [ 20.0, 440.0, 228.0, 20.0 ],
					"text" : "mxj oovu.Proxy #1 dsp/channelcount"
				}

			}
, 			{
				"box" : 				{
					"args" : [ "#1", "output" ],
					"id" : "obj-11",
					"maxclass" : "bpatcher",
					"name" : "oovu.gui.meters.8x.maxpat",
					"numinlets" : 1,
					"numoutlets" : 1,
					"outlettype" : [ "signal" ],
					"patching_rect" : [ 10.0, 500.0, 40.0, 60.0 ],
					"presentation" : 1,
					"presentation_rect" : [ 175.0, 140.0, 40.0, 65.0 ]
				}

			}
, 			{
				"box" : 				{
					"focusbordercolor" : [ 0.0, 0.019608, 0.078431, 0.0 ],
					"id" : "obj-12",
					"maxclass" : "live.slider",
					"numinlets" : 1,
					"numoutlets" : 2,
					"outlettype" : [ "", "float" ],
					"parameter_enable" : 1,
					"patching_rect" : [ 60.0, 500.0, 20.0, 50.0 ],
					"presentation" : 1,
					"presentation_rect" : [ 215.0, 140.0, 20.0, 65.0 ],
					"prototypename" : "gain",
					"saved_attribute_attributes" : 					{
						"valueof" : 						{
							"parameter_linknames" : 1,
							"parameter_longname" : "live.slider[14]",
							"parameter_shortname" : "live.slider",
							"parameter_type" : 0,
							"parameter_mmax" : 1.0,
							"parameter_initial_enable" : 1,
							"parameter_initial" : [ 0 ],
							"parameter_unitstyle" : 1,
							"parameter_speedlim" : 0.0
						}

					}
,
					"showname" : 0,
					"shownumber" : 0,
					"trioncolor" : [ 1.0, 0.0, 0.0, 1.0 ],
					"varname" : "live.slider[14]"
				}

			}
, 			{
				"box" : 				{
					"fontname" : "Arial",
					"fontsize" : 12.0,
					"id" : "obj-13",
					"maxclass" : "newobj",
					"numinlets" : 3,
					"numoutlets" : 3,
					"outlettype" : [ "", "", "" ],
					"patching_rect" : [ 110.0, 500.0, 193.0, 20.0 ],
					"text" : "mxj oovu.Proxy #1 output/gain"
				}

			}
, 			{
				"box" : 				{
					"bgcolor" : [ 0.568627, 0.619608, 0.662745, 1.0 ],
					"bgoncolor" : [ 0.921569, 0.94902, 0.05098, 1.0 ],
					"bgovercolor" : [ 0.568627, 0.619608, 0.662745, 1.0 ],
					"bgoveroncolor" : [ 0.921569, 0.94902, 0.05098, 1.0 ],
					"border" : 1,
					"bordercolor" : [ 0.301961, 0.337255, 0.403922, 1.0 ],
					"borderoncolor" : [ 0.301961, 0.337255, 0.403922, 1.0 ],
					"fontface" : 1,
					"fontname" : "Arial",
					"fontsize" : 10.0,
					"id" : "obj-4",
					"maxclass" : "textbutton",
					"mode" : 1,
					"numinlets" : 1,
					"numoutlets" : 3,
					"outlettype" : [ "", "", "int" ],
					"parameter_enable" : 0,
					"patching_rect" : [ 10.0, 315.0, 40.0, 15.0 ],
					"presentation" : 1,
					"presentation_rect" : [ 175.0, 5.0, 60.0, 15.0 ],
					"prototypename" : "M4L.toggle-yellow",
					"rounded" : 0.0,
					"text" : "Muted",
					"textcolor" : [ 0.101961, 0.121569, 0.172549, 1.0 ],
					"texton" : "Active",
					"textoncolor" : [ 0.101961, 0.121569, 0.172549, 1.0 ],
					"textovercolor" : [ 0.101961, 0.121569, 0.172549, 1.0 ],
					"textoveroncolor" : [ 0.101961, 0.121569, 0.172549, 1.0 ]
				}

			}
, 			{
				"box" : 				{
					"args" : [ "#1", "input" ],
					"id" : "obj-7",
					"maxclass" : "bpatcher",
					"name" : "oovu.gui.meters.8x.maxpat",
					"numinlets" : 1,
					"numoutlets" : 1,
					"outlettype" : [ "signal" ],
					"patching_rect" : [ 10.0, 345.0, 40.0, 60.0 ],
					"presentation" : 1,
					"presentation_rect" : [ 175.0, 50.0, 40.0, 65.0 ]
				}

			}
, 			{
				"box" : 				{
					"focusbordercolor" : [ 0.0, 0.019608, 0.078431, 0.0 ],
					"id" : "obj-6",
					"maxclass" : "live.slider",
					"numinlets" : 1,
					"numoutlets" : 2,
					"outlettype" : [ "", "float" ],
					"parameter_enable" : 1,
					"patching_rect" : [ 60.0, 345.0, 20.0, 50.0 ],
					"presentation" : 1,
					"presentation_rect" : [ 215.0, 50.0, 20.0, 65.0 ],
					"prototypename" : "gain",
					"saved_attribute_attributes" : 					{
						"valueof" : 						{
							"parameter_linknames" : 1,
							"parameter_longname" : "live.slider[15]",
							"parameter_shortname" : "live.slider",
							"parameter_type" : 0,
							"parameter_mmax" : 1.0,
							"parameter_initial_enable" : 1,
							"parameter_initial" : [ 0 ],
							"parameter_unitstyle" : 1,
							"parameter_speedlim" : 0.0
						}

					}
,
					"showname" : 0,
					"shownumber" : 0,
					"trioncolor" : [ 1.0, 0.0, 0.0, 1.0 ],
					"varname" : "live.slider[15]"
				}

			}
, 			{
				"box" : 				{
					"fontname" : "Arial",
					"fontsize" : 12.0,
					"id" : "obj-5",
					"maxclass" : "newobj",
					"numinlets" : 3,
					"numoutlets" : 3,
					"outlettype" : [ "", "", "" ],
					"patching_rect" : [ 110.0, 345.0, 186.0, 20.0 ],
					"text" : "mxj oovu.Proxy #1 input/gain"
				}

			}
, 			{
				"box" : 				{
					"fontname" : "Arial",
					"fontsize" : 12.0,
					"id" : "obj-10",
					"maxclass" : "newobj",
					"numinlets" : 3,
					"numoutlets" : 3,
					"outlettype" : [ "", "", "" ],
					"patching_rect" : [ 60.0, 315.0, 188.0, 20.0 ],
					"text" : "mxj oovu.Proxy #1 dsp/active"
				}

			}
, 			{
				"box" : 				{
					"fontname" : "Arial",
					"fontsize" : 12.0,
					"id" : "obj-9",
					"maxclass" : "newobj",
					"numinlets" : 3,
					"numoutlets" : 3,
					"outlettype" : [ "", "", "" ],
					"patching_rect" : [ 10.0, 30.0, 137.0, 20.0 ],
					"text" : "mxj oovu.Proxy #1 ."
				}

			}
, 			{
				"box" : 				{
					"background" : 1,
					"bgcolor" : [ 0.501961, 0.501961, 0.501961, 1.0 ],
					"id" : "obj-62",
					"maxclass" : "panel",
					"numinlets" : 1,
					"numoutlets" : 0,
					"patching_rect" : [ 310.0, 185.0, 255.0, 20.0 ],
					"presentation" : 1,
					"presentation_rect" : [ 5.0, 160.0, 165.0, 45.0 ]
				}

			}
, 			{
				"box" : 				{
					"background" : 1,
					"border" : 0,
					"filename" : "oovu.guibackground.js",
					"id" : "obj-8",
					"maxclass" : "jsui",
					"numinlets" : 1,
					"numoutlets" : 1,
					"outlettype" : [ "" ],
					"parameter_enable" : 0,
					"patching_rect" : [ 10.0, 90.0, 240.0, 210.0 ],
					"presentation" : 1,
					"presentation_rect" : [ 0.0, 0.0, 240.0, 210.0 ]
				}

			}
 ],
		"lines" : [ 			{
				"patchline" : 				{
					"destination" : [ "obj-8", 0 ],
					"disabled" : 0,
					"hidden" : 0,
					"source" : [ "obj-1", 0 ]
				}

			}
, 			{
				"patchline" : 				{
					"destination" : [ "obj-4", 0 ],
					"disabled" : 0,
					"hidden" : 0,
					"source" : [ "obj-10", 0 ]
				}

			}
, 			{
				"patchline" : 				{
					"destination" : [ "obj-13", 0 ],
					"disabled" : 0,
					"hidden" : 0,
					"source" : [ "obj-12", 0 ]
				}

			}
, 			{
				"patchline" : 				{
					"destination" : [ "obj-12", 0 ],
					"disabled" : 0,
					"hidden" : 0,
					"source" : [ "obj-13", 0 ]
				}

			}
, 			{
				"patchline" : 				{
					"destination" : [ "obj-204", 0 ],
					"disabled" : 0,
					"hidden" : 0,
					"midpoints" : [ 29.5, 467.0, 9.0, 467.0, 9.0, 415.0, 29.5, 415.0 ],
					"source" : [ "obj-16", 0 ]
				}

			}
, 			{
				"patchline" : 				{
					"destination" : [ "obj-18", 0 ],
					"disabled" : 0,
					"hidden" : 0,
					"source" : [ "obj-19", 0 ]
				}

			}
, 			{
				"patchline" : 				{
					"destination" : [ "obj-14", 0 ],
					"disabled" : 0,
					"hidden" : 0,
					"source" : [ "obj-2", 0 ]
				}

			}
, 			{
				"patchline" : 				{
					"destination" : [ "obj-16", 0 ],
					"disabled" : 0,
					"hidden" : 0,
					"source" : [ "obj-204", 0 ]
				}

			}
, 			{
				"patchline" : 				{
					"destination" : [ "obj-22", 0 ],
					"disabled" : 0,
					"hidden" : 0,
					"source" : [ "obj-21", 0 ]
				}

			}
, 			{
				"patchline" : 				{
					"destination" : [ "obj-21", 0 ],
					"disabled" : 0,
					"hidden" : 0,
					"source" : [ "obj-22", 0 ]
				}

			}
, 			{
				"patchline" : 				{
					"destination" : [ "obj-27", 0 ],
					"disabled" : 0,
					"hidden" : 0,
					"source" : [ "obj-23", 0 ]
				}

			}
, 			{
				"patchline" : 				{
					"destination" : [ "obj-26", 0 ],
					"disabled" : 0,
					"hidden" : 0,
					"source" : [ "obj-24", 0 ]
				}

			}
, 			{
				"patchline" : 				{
					"destination" : [ "obj-28", 0 ],
					"disabled" : 0,
					"hidden" : 0,
					"source" : [ "obj-25", 0 ]
				}

			}
, 			{
				"patchline" : 				{
					"destination" : [ "obj-24", 0 ],
					"disabled" : 0,
					"hidden" : 0,
					"source" : [ "obj-26", 0 ]
				}

			}
, 			{
				"patchline" : 				{
					"destination" : [ "obj-23", 0 ],
					"disabled" : 0,
					"hidden" : 0,
					"source" : [ "obj-27", 0 ]
				}

			}
, 			{
				"patchline" : 				{
					"destination" : [ "obj-25", 0 ],
					"disabled" : 0,
					"hidden" : 0,
					"source" : [ "obj-28", 0 ]
				}

			}
, 			{
				"patchline" : 				{
					"destination" : [ "obj-32", 0 ],
					"disabled" : 0,
					"hidden" : 0,
					"source" : [ "obj-29", 0 ]
				}

			}
, 			{
				"patchline" : 				{
					"destination" : [ "obj-34", 0 ],
					"disabled" : 0,
					"hidden" : 0,
					"source" : [ "obj-30", 0 ]
				}

			}
, 			{
				"patchline" : 				{
					"destination" : [ "obj-33", 0 ],
					"disabled" : 0,
					"hidden" : 0,
					"source" : [ "obj-31", 0 ]
				}

			}
, 			{
				"patchline" : 				{
					"destination" : [ "obj-29", 0 ],
					"disabled" : 0,
					"hidden" : 0,
					"source" : [ "obj-32", 0 ]
				}

			}
, 			{
				"patchline" : 				{
					"destination" : [ "obj-31", 0 ],
					"disabled" : 0,
					"hidden" : 0,
					"source" : [ "obj-33", 0 ]
				}

			}
, 			{
				"patchline" : 				{
					"destination" : [ "obj-30", 0 ],
					"disabled" : 0,
					"hidden" : 0,
					"source" : [ "obj-34", 0 ]
				}

			}
, 			{
				"patchline" : 				{
					"destination" : [ "obj-36", 0 ],
					"disabled" : 0,
					"hidden" : 0,
					"source" : [ "obj-35", 0 ]
				}

			}
, 			{
				"patchline" : 				{
					"destination" : [ "obj-35", 0 ],
					"disabled" : 0,
					"hidden" : 0,
					"source" : [ "obj-36", 0 ]
				}

			}
, 			{
				"patchline" : 				{
					"destination" : [ "obj-38", 0 ],
					"disabled" : 0,
					"hidden" : 0,
					"source" : [ "obj-37", 0 ]
				}

			}
, 			{
				"patchline" : 				{
					"destination" : [ "obj-37", 0 ],
					"disabled" : 0,
					"hidden" : 0,
					"source" : [ "obj-38", 0 ]
				}

			}
, 			{
				"patchline" : 				{
					"destination" : [ "obj-40", 0 ],
					"disabled" : 0,
					"hidden" : 0,
					"source" : [ "obj-39", 0 ]
				}

			}
, 			{
				"patchline" : 				{
					"destination" : [ "obj-10", 0 ],
					"disabled" : 0,
					"hidden" : 0,
					"source" : [ "obj-4", 0 ]
				}

			}
, 			{
				"patchline" : 				{
					"destination" : [ "obj-39", 0 ],
					"disabled" : 0,
					"hidden" : 0,
					"source" : [ "obj-40", 0 ]
				}

			}
, 			{
				"patchline" : 				{
					"destination" : [ "obj-49", 0 ],
					"disabled" : 0,
					"hidden" : 0,
					"source" : [ "obj-48", 0 ]
				}

			}
, 			{
				"patchline" : 				{
					"destination" : [ "obj-48", 0 ],
					"disabled" : 0,
					"hidden" : 0,
					"source" : [ "obj-49", 0 ]
				}

			}
, 			{
				"patchline" : 				{
					"destination" : [ "obj-6", 0 ],
					"disabled" : 0,
					"hidden" : 0,
					"source" : [ "obj-5", 0 ]
				}

			}
, 			{
				"patchline" : 				{
					"destination" : [ "obj-5", 0 ],
					"disabled" : 0,
					"hidden" : 0,
					"source" : [ "obj-6", 0 ]
				}

			}
, 			{
				"patchline" : 				{
					"destination" : [ "obj-1", 0 ],
					"disabled" : 0,
					"hidden" : 0,
					"source" : [ "obj-9", 2 ]
				}

			}
 ]
	}

}
