{
	"patcher" : 	{
		"fileversion" : 1,
		"appversion" : 		{
			"major" : 6,
			"minor" : 1,
			"revision" : 6,
			"architecture" : "x86"
		}
,
		"rect" : [ 557.0, 44.0, 645.0, 554.0 ],
		"bgcolor" : [ 0.0, 0.0, 0.0, 1.0 ],
		"bglocked" : 0,
		"openinpresentation" : 0,
		"default_fontsize" : 12.0,
		"default_fontface" : 0,
		"default_fontname" : "Arial",
		"gridonopen" : 0,
		"gridsize" : [ 5.0, 5.0 ],
		"gridsnaponopen" : 0,
		"statusbarvisible" : 2,
		"toolbarvisible" : 1,
		"boxanimatetime" : 200,
		"imprint" : 0,
		"enablehscroll" : 1,
		"enablevscroll" : 1,
		"devicewidth" : 0.0,
		"description" : "",
		"digest" : "",
		"tags" : "",
		"boxes" : [ 			{
				"box" : 				{
					"fontname" : "Arial",
					"fontsize" : 12.0,
					"frgb" : 0.0,
					"id" : "obj-42",
					"maxclass" : "comment",
					"numinlets" : 1,
					"numoutlets" : 0,
					"patching_rect" : [ 295.0, 475.0, 30.0, 20.0 ],
					"presentation_rect" : [ 295.0, 473.0, 0.0, 0.0 ],
					"text" : "12)",
					"textcolor" : [ 1.0, 1.0, 1.0, 1.0 ],
					"textjustification" : 2
				}

			}
, 			{
				"box" : 				{
					"fontname" : "Arial",
					"fontsize" : 12.0,
					"id" : "obj-41",
					"maxclass" : "message",
					"numinlets" : 2,
					"numoutlets" : 1,
					"outlettype" : [ "" ],
					"patching_rect" : [ 25.0, 345.0, 115.0, 18.0 ],
					"presentation_rect" : [ 25.0, 344.0, 0.0, 0.0 ],
					"text" : "/*/dsp/:voicecount 2"
				}

			}
, 			{
				"box" : 				{
					"fontname" : "Arial",
					"fontsize" : 12.0,
					"frgb" : 0.0,
					"id" : "obj-40",
					"maxclass" : "comment",
					"numinlets" : 1,
					"numoutlets" : 0,
					"patching_rect" : [ 295.0, 450.0, 30.0, 20.0 ],
					"presentation_rect" : [ 305.0, 475.0, 0.0, 0.0 ],
					"text" : "11)",
					"textcolor" : [ 1.0, 1.0, 1.0, 1.0 ],
					"textjustification" : 2
				}

			}
, 			{
				"box" : 				{
					"fontname" : "Arial",
					"fontsize" : 12.0,
					"frgb" : 0.0,
					"id" : "obj-39",
					"maxclass" : "comment",
					"numinlets" : 1,
					"numoutlets" : 0,
					"patching_rect" : [ 295.0, 425.0, 30.0, 20.0 ],
					"presentation_rect" : [ 306.0, 450.0, 0.0, 0.0 ],
					"text" : "10)",
					"textcolor" : [ 1.0, 1.0, 1.0, 1.0 ],
					"textjustification" : 2
				}

			}
, 			{
				"box" : 				{
					"fontname" : "Arial",
					"fontsize" : 12.0,
					"frgb" : 0.0,
					"id" : "obj-38",
					"maxclass" : "comment",
					"numinlets" : 1,
					"numoutlets" : 0,
					"patching_rect" : [ 305.0, 400.0, 21.0, 20.0 ],
					"presentation_rect" : [ 305.0, 421.0, 0.0, 0.0 ],
					"text" : "9)",
					"textcolor" : [ 1.0, 1.0, 1.0, 1.0 ],
					"textjustification" : 2
				}

			}
, 			{
				"box" : 				{
					"fontname" : "Arial",
					"fontsize" : 12.0,
					"frgb" : 0.0,
					"id" : "obj-37",
					"maxclass" : "comment",
					"numinlets" : 1,
					"numoutlets" : 0,
					"patching_rect" : [ 305.0, 375.0, 21.0, 20.0 ],
					"presentation_rect" : [ 305.0, 400.0, 0.0, 0.0 ],
					"text" : "8)",
					"textcolor" : [ 1.0, 1.0, 1.0, 1.0 ],
					"textjustification" : 2
				}

			}
, 			{
				"box" : 				{
					"fontname" : "Arial",
					"fontsize" : 12.0,
					"frgb" : 0.0,
					"id" : "obj-36",
					"maxclass" : "comment",
					"numinlets" : 1,
					"numoutlets" : 0,
					"patching_rect" : [ 305.0, 350.0, 21.0, 20.0 ],
					"presentation_rect" : [ 305.0, 374.0, 0.0, 0.0 ],
					"text" : "7)",
					"textcolor" : [ 1.0, 1.0, 1.0, 1.0 ],
					"textjustification" : 2
				}

			}
, 			{
				"box" : 				{
					"fontname" : "Arial",
					"fontsize" : 12.0,
					"frgb" : 0.0,
					"id" : "obj-34",
					"maxclass" : "comment",
					"numinlets" : 1,
					"numoutlets" : 0,
					"patching_rect" : [ 5.0, 470.0, 21.0, 20.0 ],
					"presentation_rect" : [ 306.0, 349.0, 0.0, 0.0 ],
					"text" : "6)",
					"textcolor" : [ 1.0, 1.0, 1.0, 1.0 ],
					"textjustification" : 2
				}

			}
, 			{
				"box" : 				{
					"fontname" : "Arial",
					"fontsize" : 12.0,
					"frgb" : 0.0,
					"id" : "obj-29",
					"maxclass" : "comment",
					"numinlets" : 1,
					"numoutlets" : 0,
					"patching_rect" : [ 5.0, 445.0, 21.0, 20.0 ],
					"text" : "5)",
					"textcolor" : [ 1.0, 1.0, 1.0, 1.0 ],
					"textjustification" : 2
				}

			}
, 			{
				"box" : 				{
					"fontname" : "Arial",
					"fontsize" : 12.0,
					"frgb" : 0.0,
					"id" : "obj-30",
					"maxclass" : "comment",
					"numinlets" : 1,
					"numoutlets" : 0,
					"patching_rect" : [ 5.0, 420.0, 21.0, 20.0 ],
					"text" : "4)",
					"textcolor" : [ 1.0, 1.0, 1.0, 1.0 ],
					"textjustification" : 2
				}

			}
, 			{
				"box" : 				{
					"fontname" : "Arial",
					"fontsize" : 12.0,
					"frgb" : 0.0,
					"id" : "obj-31",
					"maxclass" : "comment",
					"numinlets" : 1,
					"numoutlets" : 0,
					"patching_rect" : [ 5.0, 395.0, 21.0, 20.0 ],
					"text" : "3)",
					"textcolor" : [ 1.0, 1.0, 1.0, 1.0 ],
					"textjustification" : 2
				}

			}
, 			{
				"box" : 				{
					"fontname" : "Arial",
					"fontsize" : 12.0,
					"frgb" : 0.0,
					"id" : "obj-32",
					"maxclass" : "comment",
					"numinlets" : 1,
					"numoutlets" : 0,
					"patching_rect" : [ 5.0, 370.0, 21.0, 20.0 ],
					"text" : "2)",
					"textcolor" : [ 1.0, 1.0, 1.0, 1.0 ],
					"textjustification" : 2
				}

			}
, 			{
				"box" : 				{
					"fontname" : "Arial",
					"fontsize" : 12.0,
					"frgb" : 0.0,
					"id" : "obj-18",
					"maxclass" : "comment",
					"numinlets" : 1,
					"numoutlets" : 0,
					"patching_rect" : [ 5.0, 345.0, 21.0, 20.0 ],
					"text" : "1)",
					"textcolor" : [ 1.0, 1.0, 1.0, 1.0 ],
					"textjustification" : 2
				}

			}
, 			{
				"box" : 				{
					"fontname" : "Arial",
					"fontsize" : 12.0,
					"id" : "obj-27",
					"maxclass" : "newobj",
					"numinlets" : 2,
					"numoutlets" : 3,
					"outlettype" : [ "", "", "" ],
					"patching_rect" : [ 25.0, 495.0, 87.0, 20.0 ],
					"presentation_rect" : [ 175.0, 495.0, 0.0, 0.0 ],
					"text" : "mxj oovu.Root"
				}

			}
, 			{
				"box" : 				{
					"fontname" : "Arial",
					"fontsize" : 12.0,
					"id" : "obj-26",
					"maxclass" : "message",
					"numinlets" : 2,
					"numoutlets" : 1,
					"outlettype" : [ "" ],
					"patching_rect" : [ 325.0, 475.0, 154.0, 18.0 ],
					"presentation_rect" : [ 313.0, 635.0, 0.0, 0.0 ],
					"text" : "/*/dsp/output/gain 0.1 2000"
				}

			}
, 			{
				"box" : 				{
					"fontname" : "Arial",
					"fontsize" : 12.0,
					"id" : "obj-24",
					"maxclass" : "message",
					"numinlets" : 2,
					"numoutlets" : 1,
					"outlettype" : [ "" ],
					"patching_rect" : [ 325.0, 450.0, 160.0, 18.0 ],
					"presentation_rect" : [ 55.0, 500.0, 0.0, 0.0 ],
					"text" : "/input~.3/soundfile/playing 1"
				}

			}
, 			{
				"box" : 				{
					"fontname" : "Arial",
					"fontsize" : 12.0,
					"id" : "obj-23",
					"maxclass" : "message",
					"numinlets" : 2,
					"numoutlets" : 1,
					"outlettype" : [ "" ],
					"patching_rect" : [ 325.0, 425.0, 160.0, 18.0 ],
					"presentation_rect" : [ 55.0, 474.0, 0.0, 0.0 ],
					"text" : "/input~.3/soundfile/looping 1"
				}

			}
, 			{
				"box" : 				{
					"fontname" : "Arial",
					"fontsize" : 12.0,
					"id" : "obj-22",
					"maxclass" : "message",
					"numinlets" : 2,
					"numoutlets" : 1,
					"outlettype" : [ "" ],
					"patching_rect" : [ 25.0, 470.0, 157.0, 18.0 ],
					"presentation_rect" : [ 315.0, 486.0, 0.0, 0.0 ],
					"text" : "/*/dsp/output.1/amplitude 1."
				}

			}
, 			{
				"box" : 				{
					"fontname" : "Arial",
					"fontsize" : 12.0,
					"id" : "obj-21",
					"maxclass" : "message",
					"numinlets" : 2,
					"numoutlets" : 1,
					"outlettype" : [ "" ],
					"patching_rect" : [ 25.0, 445.0, 248.0, 18.0 ],
					"presentation_rect" : [ 315.0, 462.0, 0.0, 0.0 ],
					"text" : "/*/dsp/output.1/destination /output~/dsp/input"
				}

			}
, 			{
				"box" : 				{
					"fontname" : "Arial",
					"fontsize" : 12.0,
					"id" : "obj-20",
					"maxclass" : "message",
					"numinlets" : 2,
					"numoutlets" : 1,
					"outlettype" : [ "" ],
					"patching_rect" : [ 25.0, 370.0, 122.0, 18.0 ],
					"presentation_rect" : [ 315.0, 385.0, 0.0, 0.0 ],
					"text" : "/output~/dac/active 1"
				}

			}
, 			{
				"box" : 				{
					"fontname" : "Arial",
					"fontsize" : 12.0,
					"id" : "obj-19",
					"maxclass" : "message",
					"numinlets" : 2,
					"numoutlets" : 1,
					"outlettype" : [ "" ],
					"patching_rect" : [ 25.0, 420.0, 114.0, 18.0 ],
					"text" : "/*/dsp/output/gain 0"
				}

			}
, 			{
				"box" : 				{
					"fontname" : "Arial",
					"fontsize" : 12.0,
					"id" : "obj-17",
					"maxclass" : "message",
					"numinlets" : 2,
					"numoutlets" : 1,
					"outlettype" : [ "" ],
					"patching_rect" : [ 25.0, 395.0, 86.0, 18.0 ],
					"text" : "/*/dsp/active 1"
				}

			}
, 			{
				"box" : 				{
					"fontname" : "Arial",
					"fontsize" : 12.0,
					"id" : "obj-16",
					"maxclass" : "message",
					"numinlets" : 2,
					"numoutlets" : 1,
					"outlettype" : [ "" ],
					"patching_rect" : [ 325.0, 400.0, 227.0, 18.0 ],
					"text" : "/input~.3/soundfile/open cherokee.aif"
				}

			}
, 			{
				"box" : 				{
					"fontname" : "Arial",
					"fontsize" : 12.0,
					"id" : "obj-15",
					"maxclass" : "message",
					"numinlets" : 2,
					"numoutlets" : 1,
					"outlettype" : [ "" ],
					"patching_rect" : [ 325.0, 375.0, 148.0, 18.0 ],
					"text" : "/input~.3/source soundfile"
				}

			}
, 			{
				"box" : 				{
					"fontname" : "Arial",
					"fontsize" : 12.0,
					"id" : "obj-14",
					"maxclass" : "message",
					"numinlets" : 2,
					"numoutlets" : 1,
					"outlettype" : [ "" ],
					"patching_rect" : [ 325.0, 350.0, 147.0, 18.0 ],
					"text" : "/input~.2/source oscillator"
				}

			}
, 			{
				"box" : 				{
					"fontname" : "Arial",
					"fontsize" : 12.0,
					"id" : "obj-12",
					"maxclass" : "newobj",
					"numinlets" : 2,
					"numoutlets" : 3,
					"outlettype" : [ "", "", "" ],
					"patching_rect" : [ 325.0, 500.0, 87.0, 20.0 ],
					"text" : "mxj oovu.Root"
				}

			}
, 			{
				"box" : 				{
					"fontname" : "Arial",
					"fontsize" : 12.0,
					"id" : "obj-11",
					"maxclass" : "newobj",
					"numinlets" : 1,
					"numoutlets" : 0,
					"patching_rect" : [ 485.0, 310.0, 71.0, 20.0 ],
					"text" : "print output"
				}

			}
, 			{
				"box" : 				{
					"fontname" : "Arial",
					"fontsize" : 12.0,
					"id" : "obj-10",
					"maxclass" : "newobj",
					"numinlets" : 1,
					"numoutlets" : 0,
					"patching_rect" : [ 325.0, 310.0, 80.0, 20.0 ],
					"text" : "print input~.3"
				}

			}
, 			{
				"box" : 				{
					"fontname" : "Arial",
					"fontsize" : 12.0,
					"id" : "obj-9",
					"maxclass" : "newobj",
					"numinlets" : 1,
					"numoutlets" : 0,
					"patching_rect" : [ 175.0, 310.0, 80.0, 20.0 ],
					"text" : "print input~.2"
				}

			}
, 			{
				"box" : 				{
					"fontname" : "Arial",
					"fontsize" : 12.0,
					"id" : "obj-7",
					"maxclass" : "newobj",
					"numinlets" : 1,
					"numoutlets" : 0,
					"patching_rect" : [ 25.0, 310.0, 80.0, 20.0 ],
					"text" : "print input~.1"
				}

			}
, 			{
				"box" : 				{
					"fontface" : 1,
					"fontname" : "Arial",
					"fontsize" : 42.0,
					"frgb" : 0.0,
					"id" : "obj-8",
					"maxclass" : "comment",
					"numinlets" : 1,
					"numoutlets" : 0,
					"patching_rect" : [ 5.0, 0.0, 135.0, 53.0 ],
					"text" : "OOVU",
					"textcolor" : [ 0.8, 0.8, 0.8, 1.0 ]
				}

			}
, 			{
				"box" : 				{
					"fontname" : "Arial",
					"fontsize" : 12.0,
					"frgb" : 0.0,
					"id" : "obj-5",
					"maxclass" : "comment",
					"numinlets" : 1,
					"numoutlets" : 0,
					"patching_rect" : [ 135.0, 25.0, 397.0, 20.0 ],
					"text" : "microphone input module with test tones and basic sound file player"
				}

			}
, 			{
				"box" : 				{
					"fontface" : 1,
					"fontname" : "Arial",
					"fontsize" : 16.0,
					"frgb" : 0.0,
					"id" : "obj-4",
					"maxclass" : "comment",
					"numinlets" : 1,
					"numoutlets" : 0,
					"patching_rect" : [ 135.0, 5.0, 123.0, 24.0 ],
					"text" : "omod.input~",
					"underline" : 1
				}

			}
, 			{
				"box" : 				{
					"bgcolor" : [ 1.0, 1.0, 1.0, 1.0 ],
					"bordercolor" : [ 0.094118, 0.113725, 0.137255, 1.0 ],
					"grad1" : [ 0.666667, 0.698039, 0.717647, 1.0 ],
					"grad2" : [ 0.094118, 0.113725, 0.137255, 1.0 ],
					"id" : "obj-6",
					"maxclass" : "panel",
					"numinlets" : 1,
					"numoutlets" : 0,
					"patching_rect" : [ 0.0, 0.0, 645.0, 50.0 ],
					"prototypename" : "M4L.horizontal-black",
					"rounded" : 0
				}

			}
, 			{
				"box" : 				{
					"args" : [ "output~" ],
					"id" : "obj-3",
					"maxclass" : "bpatcher",
					"name" : "omod.output~.maxpat",
					"numinlets" : 2,
					"numoutlets" : 2,
					"outlettype" : [ "", "" ],
					"patching_rect" : [ 485.0, 80.0, 140.0, 210.0 ]
				}

			}
, 			{
				"box" : 				{
					"args" : [ "input~.3" ],
					"id" : "obj-35",
					"maxclass" : "bpatcher",
					"name" : "omod.input~.maxpat",
					"numinlets" : 2,
					"numoutlets" : 2,
					"outlettype" : [ "", "" ],
					"patching_rect" : [ 325.0, 80.0, 140.0, 210.0 ]
				}

			}
, 			{
				"box" : 				{
					"args" : [ "input~.1" ],
					"id" : "obj-33",
					"maxclass" : "bpatcher",
					"name" : "omod.input~.maxpat",
					"numinlets" : 2,
					"numoutlets" : 2,
					"outlettype" : [ "", "" ],
					"patching_rect" : [ 25.0, 80.0, 140.0, 210.0 ]
				}

			}
, 			{
				"box" : 				{
					"args" : [ "input~.2" ],
					"id" : "obj-1",
					"maxclass" : "bpatcher",
					"name" : "omod.input~.maxpat",
					"numinlets" : 2,
					"numoutlets" : 2,
					"outlettype" : [ "", "" ],
					"patching_rect" : [ 175.0, 80.0, 140.0, 210.0 ]
				}

			}
, 			{
				"box" : 				{
					"bgcolor" : [ 0.996078, 0.976471, 1.0, 0.0 ],
					"border" : 2,
					"bordercolor" : [ 0.502292, 0.000097, 0.263935, 1.0 ],
					"id" : "obj-2",
					"maxclass" : "panel",
					"numinlets" : 1,
					"numoutlets" : 0,
					"patching_rect" : [ 15.0, 70.0, 460.0, 230.0 ]
				}

			}
 ],
		"lines" : [ 			{
				"patchline" : 				{
					"destination" : [ "obj-9", 0 ],
					"disabled" : 0,
					"hidden" : 0,
					"source" : [ "obj-1", 0 ]
				}

			}
, 			{
				"patchline" : 				{
					"destination" : [ "obj-12", 0 ],
					"disabled" : 0,
					"hidden" : 0,
					"source" : [ "obj-14", 0 ]
				}

			}
, 			{
				"patchline" : 				{
					"destination" : [ "obj-12", 0 ],
					"disabled" : 0,
					"hidden" : 0,
					"source" : [ "obj-15", 0 ]
				}

			}
, 			{
				"patchline" : 				{
					"destination" : [ "obj-12", 0 ],
					"disabled" : 0,
					"hidden" : 0,
					"source" : [ "obj-16", 0 ]
				}

			}
, 			{
				"patchline" : 				{
					"destination" : [ "obj-27", 0 ],
					"disabled" : 0,
					"hidden" : 0,
					"source" : [ "obj-17", 0 ]
				}

			}
, 			{
				"patchline" : 				{
					"destination" : [ "obj-27", 0 ],
					"disabled" : 0,
					"hidden" : 0,
					"source" : [ "obj-19", 0 ]
				}

			}
, 			{
				"patchline" : 				{
					"destination" : [ "obj-27", 0 ],
					"disabled" : 0,
					"hidden" : 0,
					"source" : [ "obj-20", 0 ]
				}

			}
, 			{
				"patchline" : 				{
					"destination" : [ "obj-27", 0 ],
					"disabled" : 0,
					"hidden" : 0,
					"source" : [ "obj-21", 0 ]
				}

			}
, 			{
				"patchline" : 				{
					"destination" : [ "obj-27", 0 ],
					"disabled" : 0,
					"hidden" : 0,
					"source" : [ "obj-22", 0 ]
				}

			}
, 			{
				"patchline" : 				{
					"destination" : [ "obj-12", 0 ],
					"disabled" : 0,
					"hidden" : 0,
					"source" : [ "obj-23", 0 ]
				}

			}
, 			{
				"patchline" : 				{
					"destination" : [ "obj-12", 0 ],
					"disabled" : 0,
					"hidden" : 0,
					"source" : [ "obj-24", 0 ]
				}

			}
, 			{
				"patchline" : 				{
					"destination" : [ "obj-12", 0 ],
					"disabled" : 0,
					"hidden" : 0,
					"source" : [ "obj-26", 0 ]
				}

			}
, 			{
				"patchline" : 				{
					"destination" : [ "obj-11", 0 ],
					"disabled" : 0,
					"hidden" : 0,
					"source" : [ "obj-3", 0 ]
				}

			}
, 			{
				"patchline" : 				{
					"destination" : [ "obj-7", 0 ],
					"disabled" : 0,
					"hidden" : 0,
					"source" : [ "obj-33", 0 ]
				}

			}
, 			{
				"patchline" : 				{
					"destination" : [ "obj-10", 0 ],
					"disabled" : 0,
					"hidden" : 0,
					"source" : [ "obj-35", 0 ]
				}

			}
, 			{
				"patchline" : 				{
					"destination" : [ "obj-27", 0 ],
					"disabled" : 0,
					"hidden" : 0,
					"source" : [ "obj-41", 0 ]
				}

			}
 ],
		"parameters" : 		{
			"obj-1::obj-13::obj-58::obj-21" : [ "live.numbox[23]", "live.numbox", 0 ],
			"obj-1::obj-13::obj-56::obj-33" : [ "live.tab[2]", "live.tab[1]", 0 ],
			"obj-1::obj-13::obj-62::obj-36" : [ "live.numbox[12]", "live.numbox[1]", 0 ],
			"obj-3::obj-13::obj-36" : [ "live.numbox[72]", "live.numbox[1]", 0 ],
			"obj-35::obj-13::obj-60" : [ "live.numbox[13]", "live.numbox", 0 ],
			"obj-33::obj-13::obj-58::obj-21" : [ "live.numbox[22]", "live.numbox", 0 ],
			"obj-33::obj-13::obj-56::obj-41" : [ "live.numbox[20]", "live.numbox", 0 ],
			"obj-33::obj-13::obj-56::obj-42" : [ "live.numbox[19]", "live.numbox", 0 ],
			"obj-1::obj-13::obj-54" : [ "live.numbox[17]", "live.numbox", 0 ],
			"obj-33::obj-13::obj-60" : [ "live.numbox[7]", "live.numbox", 0 ],
			"obj-1::obj-13::obj-56::obj-42" : [ "live.numbox[24]", "live.numbox", 0 ],
			"obj-33::obj-13::obj-62::obj-36" : [ "live.numbox[1]", "live.numbox[1]", 0 ],
			"obj-1::obj-13::obj-56::obj-41" : [ "live.numbox[25]", "live.numbox", 0 ],
			"obj-35::obj-13::obj-54" : [ "live.numbox[14]", "live.numbox", 0 ],
			"obj-33::obj-13::obj-54" : [ "live.numbox[8]", "live.numbox", 0 ],
			"obj-35::obj-13::obj-56::obj-33" : [ "live.tab[6]", "live.tab[1]", 0 ],
			"obj-1::obj-13::obj-62::obj-51" : [ "live.numbox[18]", "live.numbox", 0 ],
			"obj-1::obj-13::obj-60" : [ "live.numbox[16]", "live.numbox", 0 ],
			"obj-35::obj-13::obj-62::obj-36" : [ "live.numbox[5]", "live.numbox[1]", 0 ],
			"obj-3::obj-13::obj-204" : [ "live.numbox[73]", "live.numbox", 0 ],
			"obj-35::obj-13::obj-58::obj-21" : [ "live.numbox[2]", "live.numbox", 0 ],
			"obj-35::obj-13::obj-56::obj-42" : [ "live.numbox[28]", "live.numbox", 0 ],
			"obj-35::obj-13::obj-56::obj-41" : [ "live.numbox[29]", "live.numbox", 0 ],
			"obj-33::obj-13::obj-62::obj-51" : [ "live.numbox[4]", "live.numbox", 0 ],
			"obj-33::obj-13::obj-56::obj-33" : [ "live.tab[1]", "live.tab[1]", 0 ],
			"obj-35::obj-13::obj-62::obj-51" : [ "live.numbox[6]", "live.numbox", 0 ]
		}
,
		"dependency_cache" : [ 			{
				"name" : "omod.input~.maxpat",
				"bootpath" : "/Applications/Max 6.1/packages/oovu/patchers/modules/omod.input~",
				"patcherrelativepath" : ".",
				"type" : "JSON",
				"implicit" : 1
			}
, 			{
				"name" : "omod.input~.model.maxpat",
				"bootpath" : "/Applications/Max 6.1/packages/oovu/patchers/modules/omod.input~",
				"patcherrelativepath" : ".",
				"type" : "JSON",
				"implicit" : 1
			}
, 			{
				"name" : "oovu.bundle.dsp.sender.maxpat",
				"bootpath" : "/Applications/Max 6.1/packages/oovu/patchers/abstractions/bundles",
				"patcherrelativepath" : "../../abstractions/bundles",
				"type" : "JSON",
				"implicit" : 1
			}
, 			{
				"name" : "oovu.push.source.maxpat",
				"bootpath" : "/Applications/Max 6.1/packages/oovu/patchers/abstractions/pushpull",
				"patcherrelativepath" : "../../abstractions/pushpull",
				"type" : "JSON",
				"implicit" : 1
			}
, 			{
				"name" : "oovu.push.source.poly~.maxpat",
				"bootpath" : "/Applications/Max 6.1/packages/oovu/patchers/abstractions/pushpull",
				"patcherrelativepath" : "../../abstractions/pushpull",
				"type" : "JSON",
				"implicit" : 1
			}
, 			{
				"name" : "oovu.dsp.8chlevels.maxpat",
				"bootpath" : "/Applications/Max 6.1/packages/oovu/patchers/abstractions/dsp",
				"patcherrelativepath" : "../../abstractions/dsp",
				"type" : "JSON",
				"implicit" : 1
			}
, 			{
				"name" : "omod.input~.voix.maxpat",
				"bootpath" : "/Applications/Max 6.1/packages/oovu/patchers/modules/omod.input~",
				"patcherrelativepath" : ".",
				"type" : "JSON",
				"implicit" : 1
			}
, 			{
				"name" : "oovu.dsp.thispoly~.maxpat",
				"bootpath" : "/Applications/Max 6.1/packages/oovu/patchers/abstractions/dsp",
				"patcherrelativepath" : "../../abstractions/dsp",
				"type" : "JSON",
				"implicit" : 1
			}
, 			{
				"name" : "oovu.bundle.dsp.base.maxpat",
				"bootpath" : "/Applications/Max 6.1/packages/oovu/patchers/abstractions/bundles",
				"patcherrelativepath" : "../../abstractions/bundles",
				"type" : "JSON",
				"implicit" : 1
			}
, 			{
				"name" : "omod.input~.view.maxpat",
				"bootpath" : "/Applications/Max 6.1/packages/oovu/patchers/modules/omod.input~",
				"patcherrelativepath" : ".",
				"type" : "JSON",
				"implicit" : 1
			}
, 			{
				"name" : "oovu.guibackground.js",
				"bootpath" : "/Applications/Max 6.1/packages/oovu/jsui",
				"patcherrelativepath" : "../../../jsui",
				"type" : "TEXT",
				"implicit" : 1
			}
, 			{
				"name" : "oovu.gui.meters.8x.maxpat",
				"bootpath" : "/Applications/Max 6.1/packages/oovu/patchers/abstractions/gui",
				"patcherrelativepath" : "../../abstractions/gui",
				"type" : "JSON",
				"implicit" : 1
			}
, 			{
				"name" : "omod.input~.view.oscillator.maxpat",
				"bootpath" : "/Applications/Max 6.1/packages/oovu/patchers/modules/omod.input~",
				"patcherrelativepath" : ".",
				"type" : "JSON",
				"implicit" : 1
			}
, 			{
				"name" : "sine.svg",
				"bootpath" : "/Applications/Max 6.1/patches/picts/m4l-picts",
				"patcherrelativepath" : "../../../../../patches/picts/m4l-picts",
				"type" : "svg ",
				"implicit" : 1
			}
, 			{
				"name" : "saw.svg",
				"bootpath" : "/Applications/Max 6.1/patches/picts/m4l-picts",
				"patcherrelativepath" : "../../../../../patches/picts/m4l-picts",
				"type" : "svg ",
				"implicit" : 1
			}
, 			{
				"name" : "square.svg",
				"bootpath" : "/Applications/Max 6.1/patches/picts/m4l-picts",
				"patcherrelativepath" : "../../../../../patches/picts/m4l-picts",
				"type" : "svg ",
				"implicit" : 1
			}
, 			{
				"name" : "random.svg",
				"bootpath" : "/Applications/Max 6.1/patches/picts/m4l-picts",
				"patcherrelativepath" : "../../../../../patches/picts/m4l-picts",
				"type" : "svg ",
				"implicit" : 1
			}
, 			{
				"name" : "omod.input~.view.soundfile.maxpat",
				"bootpath" : "/Applications/Max 6.1/packages/oovu/patchers/modules/omod.input~",
				"patcherrelativepath" : ".",
				"type" : "JSON",
				"implicit" : 1
			}
, 			{
				"name" : "omod.input~.view.adc.maxpat",
				"bootpath" : "/Applications/Max 6.1/packages/oovu/patchers/modules/omod.input~",
				"patcherrelativepath" : ".",
				"type" : "JSON",
				"implicit" : 1
			}
, 			{
				"name" : "omod.output~.maxpat",
				"bootpath" : "/Applications/Max 6.1/packages/oovu/patchers/modules/omod.output~",
				"patcherrelativepath" : "../omod.output~",
				"type" : "JSON",
				"implicit" : 1
			}
, 			{
				"name" : "omod.output~.model.maxpat",
				"bootpath" : "/Applications/Max 6.1/packages/oovu/patchers/modules/omod.output~",
				"patcherrelativepath" : "../omod.output~",
				"type" : "JSON",
				"implicit" : 1
			}
, 			{
				"name" : "oovu.bundle.dsp.receiver.maxpat",
				"bootpath" : "/Applications/Max 6.1/packages/oovu/patchers/abstractions/bundles",
				"patcherrelativepath" : "../../abstractions/bundles",
				"type" : "JSON",
				"implicit" : 1
			}
, 			{
				"name" : "oovu.push.destination.maxpat",
				"bootpath" : "/Applications/Max 6.1/packages/oovu/patchers/abstractions/pushpull",
				"patcherrelativepath" : "../../abstractions/pushpull",
				"type" : "JSON",
				"implicit" : 1
			}
, 			{
				"name" : "oovu.push.destination.poly~.maxpat",
				"bootpath" : "/Applications/Max 6.1/packages/oovu/patchers/abstractions/pushpull",
				"patcherrelativepath" : "../../abstractions/pushpull",
				"type" : "JSON",
				"implicit" : 1
			}
, 			{
				"name" : "omod.output~.voix.maxpat",
				"bootpath" : "/Applications/Max 6.1/packages/oovu/patchers/modules/omod.output~",
				"patcherrelativepath" : "../omod.output~",
				"type" : "JSON",
				"implicit" : 1
			}
, 			{
				"name" : "omod.output~.view.maxpat",
				"bootpath" : "/Applications/Max 6.1/packages/oovu/patchers/modules/omod.output~",
				"patcherrelativepath" : "../omod.output~",
				"type" : "JSON",
				"implicit" : 1
			}
 ]
	}

}
