{
	"patcher" : 	{
		"fileversion" : 1,
		"appversion" : 		{
			"major" : 6,
			"minor" : 1,
			"revision" : 5,
			"architecture" : "x86"
		}
,
		"rect" : [ 510.0, 44.0, 640.0, 480.0 ],
		"bgcolor" : [ 1.0, 1.0, 1.0, 0.0 ],
		"bglocked" : 1,
		"openinpresentation" : 1,
		"default_fontsize" : 12.0,
		"default_fontface" : 0,
		"default_fontname" : "Arial",
		"gridonopen" : 0,
		"gridsize" : [ 5.0, 5.0 ],
		"gridsnaponopen" : 0,
		"statusbarvisible" : 2,
		"toolbarvisible" : 1,
		"boxanimatetime" : 200,
		"imprint" : 0,
		"enablehscroll" : 1,
		"enablevscroll" : 1,
		"devicewidth" : 0.0,
		"description" : "",
		"digest" : "",
		"tags" : "",
		"boxes" : [ 			{
				"box" : 				{
					"fontname" : "Arial",
					"fontsize" : 12.0,
					"id" : "obj-27",
					"maxclass" : "newobj",
					"numinlets" : 1,
					"numoutlets" : 1,
					"outlettype" : [ "" ],
					"patching_rect" : [ 460.0, 180.0, 100.0, 20.0 ],
					"text" : "prepend text"
				}

			}
, 			{
				"box" : 				{
					"bgcolor" : [ 0.666667, 0.698039, 0.717647, 0.0 ],
					"bgoncolor" : [ 0.666667, 0.698039, 0.717647, 0.0 ],
					"bgovercolor" : [ 0.666667, 0.698039, 0.717647, 0.0 ],
					"bgoveroncolor" : [ 0.666667, 0.698039, 0.717647, 0.0 ],
					"border" : 1,
					"bordercolor" : [ 0.501961, 0.501961, 0.501961, 1.0 ],
					"borderoncolor" : [ 0.666667, 0.698039, 0.717647, 0.0 ],
					"fontname" : "Arial Bold",
					"fontsize" : 10.0,
					"id" : "obj-21",
					"ignoreclick" : 1,
					"maxclass" : "textbutton",
					"mode" : 1,
					"numinlets" : 1,
					"numoutlets" : 3,
					"outlettype" : [ "", "", "int" ],
					"parameter_enable" : 0,
					"patching_rect" : [ 460.0, 205.0, 28.0, 16.0 ],
					"presentation" : 1,
					"presentation_rect" : [ 5.0, 140.0, 130.0, 35.0 ],
					"prototypename" : "M4L.display",
					"rounded" : 0.0,
					"text" : "",
					"textcolor" : [ 1.0, 1.0, 1.0, 1.0 ],
					"texton" : "Text",
					"textovercolor" : [ 1.0, 1.0, 1.0, 1.0 ],
					"textoveroncolor" : [ 1.0, 1.0, 1.0, 1.0 ],
					"truncate" : 2
				}

			}
, 			{
				"box" : 				{
					"fontname" : "Arial",
					"fontsize" : 12.0,
					"id" : "obj-26",
					"maxclass" : "newobj",
					"numinlets" : 1,
					"numoutlets" : 1,
					"outlettype" : [ "int" ],
					"patching_rect" : [ 465.0, 140.0, 24.0, 20.0 ],
					"text" : "t 0"
				}

			}
, 			{
				"box" : 				{
					"bgcolor" : [ 0.568627, 0.619608, 0.662745, 1.0 ],
					"bgoncolor" : [ 1.0, 0.8, 0.4, 1.0 ],
					"bgovercolor" : [ 0.568627, 0.619608, 0.662745, 1.0 ],
					"bgoveroncolor" : [ 0.921569, 0.94902, 0.05098, 1.0 ],
					"border" : 1,
					"bordercolor" : [ 0.301961, 0.337255, 0.403922, 1.0 ],
					"borderoncolor" : [ 0.301961, 0.337255, 0.403922, 1.0 ],
					"fontface" : 1,
					"fontname" : "Arial",
					"fontsize" : 10.0,
					"id" : "obj-25",
					"maxclass" : "textbutton",
					"numinlets" : 1,
					"numoutlets" : 3,
					"outlettype" : [ "", "", "int" ],
					"parameter_enable" : 0,
					"patching_rect" : [ 465.0, 115.0, 32.0, 15.0 ],
					"presentation" : 1,
					"presentation_rect" : [ 5.0, 100.0, 65.0, 15.0 ],
					"prototypename" : "M4L.toggle",
					"rounded" : 0.0,
					"text" : "0 st",
					"textcolor" : [ 0.101961, 0.121569, 0.172549, 1.0 ],
					"texton" : "Trig",
					"textoncolor" : [ 0.101961, 0.121569, 0.172549, 1.0 ],
					"textovercolor" : [ 0.101961, 0.121569, 0.172549, 1.0 ],
					"textoveroncolor" : [ 0.101961, 0.121569, 0.172549, 1.0 ]
				}

			}
, 			{
				"box" : 				{
					"fontname" : "Arial",
					"fontsize" : 12.0,
					"id" : "obj-20",
					"linecount" : 2,
					"maxclass" : "newobj",
					"numinlets" : 3,
					"numoutlets" : 3,
					"outlettype" : [ "", "", "" ],
					"patching_rect" : [ 290.0, 135.0, 181.0, 20.0 ],
					"text" : "mxj oovu.Proxy #1 transposition"
				}

			}
, 			{
				"box" : 				{
					"appearance" : 2,
					"id" : "obj-17",
					"maxclass" : "live.numbox",
					"numinlets" : 1,
					"numoutlets" : 2,
					"outlettype" : [ "", "float" ],
					"parameter_enable" : 1,
					"patching_rect" : [ 290.0, 115.0, 95.0, 15.0 ],
					"presentation" : 1,
					"presentation_rect" : [ 5.0, 120.0, 130.0, 15.0 ],
					"prototypename" : "transp",
					"saved_attribute_attributes" : 					{
						"valueof" : 						{
							"parameter_linknames" : 1,
							"parameter_longname" : "live.numbox",
							"parameter_shortname" : "live.numbox",
							"parameter_type" : 0,
							"parameter_mmin" : -24.0,
							"parameter_mmax" : 24.0,
							"parameter_initial_enable" : 1,
							"parameter_initial" : [ 0 ],
							"parameter_unitstyle" : 7,
							"parameter_speedlim" : 0.0
						}

					}
,
					"varname" : "live.numbox"
				}

			}
, 			{
				"box" : 				{
					"bgcolor" : [ 0.568627, 0.619608, 0.662745, 1.0 ],
					"bgoncolor" : [ 0.921569, 0.94902, 0.05098, 1.0 ],
					"bgovercolor" : [ 0.568627, 0.619608, 0.662745, 1.0 ],
					"bgoveroncolor" : [ 0.921569, 0.94902, 0.05098, 1.0 ],
					"border" : 1,
					"bordercolor" : [ 0.301961, 0.337255, 0.403922, 1.0 ],
					"borderoncolor" : [ 0.301961, 0.337255, 0.403922, 1.0 ],
					"fontface" : 1,
					"fontname" : "Arial",
					"fontsize" : 10.0,
					"id" : "obj-15",
					"maxclass" : "textbutton",
					"mode" : 1,
					"numinlets" : 1,
					"numoutlets" : 3,
					"outlettype" : [ "", "", "int" ],
					"parameter_enable" : 0,
					"patching_rect" : [ 290.0, 245.0, 40.0, 15.0 ],
					"presentation" : 1,
					"presentation_rect" : [ 5.0, 75.0, 65.0, 20.0 ],
					"prototypename" : "M4L.toggle-yellow",
					"rounded" : 0.0,
					"text" : "Once",
					"textcolor" : [ 0.101961, 0.121569, 0.172549, 1.0 ],
					"texton" : "Repeat",
					"textoncolor" : [ 0.101961, 0.121569, 0.172549, 1.0 ],
					"textovercolor" : [ 0.101961, 0.121569, 0.172549, 1.0 ],
					"textoveroncolor" : [ 0.101961, 0.121569, 0.172549, 1.0 ]
				}

			}
, 			{
				"box" : 				{
					"fontname" : "Arial",
					"fontsize" : 12.0,
					"id" : "obj-16",
					"linecount" : 2,
					"maxclass" : "newobj",
					"numinlets" : 3,
					"numoutlets" : 3,
					"outlettype" : [ "", "", "" ],
					"patching_rect" : [ 290.0, 265.0, 151.0, 20.0 ],
					"text" : "mxj oovu.Proxy #1 looping"
				}

			}
, 			{
				"box" : 				{
					"bgcolor" : [ 0.568627, 0.619608, 0.662745, 1.0 ],
					"bgoncolor" : [ 0.921569, 0.94902, 0.05098, 1.0 ],
					"bgovercolor" : [ 0.568627, 0.619608, 0.662745, 1.0 ],
					"bgoveroncolor" : [ 0.921569, 0.94902, 0.05098, 1.0 ],
					"border" : 1,
					"bordercolor" : [ 0.301961, 0.337255, 0.403922, 1.0 ],
					"borderoncolor" : [ 0.301961, 0.337255, 0.403922, 1.0 ],
					"fontface" : 1,
					"fontname" : "Arial",
					"fontsize" : 10.0,
					"id" : "obj-14",
					"maxclass" : "textbutton",
					"mode" : 1,
					"numinlets" : 1,
					"numoutlets" : 3,
					"outlettype" : [ "", "", "int" ],
					"parameter_enable" : 0,
					"patching_rect" : [ 290.0, 185.0, 40.0, 15.0 ],
					"presentation" : 1,
					"presentation_rect" : [ 5.0, 50.0, 65.0, 20.0 ],
					"prototypename" : "M4L.toggle-yellow",
					"rounded" : 0.0,
					"text" : "Stopped",
					"textcolor" : [ 0.101961, 0.121569, 0.172549, 1.0 ],
					"texton" : "Playing",
					"textoncolor" : [ 0.101961, 0.121569, 0.172549, 1.0 ],
					"textovercolor" : [ 0.101961, 0.121569, 0.172549, 1.0 ],
					"textoveroncolor" : [ 0.101961, 0.121569, 0.172549, 1.0 ]
				}

			}
, 			{
				"box" : 				{
					"fontname" : "Arial",
					"fontsize" : 12.0,
					"id" : "obj-9",
					"linecount" : 2,
					"maxclass" : "newobj",
					"numinlets" : 3,
					"numoutlets" : 3,
					"outlettype" : [ "", "", "" ],
					"patching_rect" : [ 290.0, 205.0, 151.0, 20.0 ],
					"text" : "mxj oovu.Proxy #1 playing"
				}

			}
, 			{
				"box" : 				{
					"fontname" : "Arial",
					"fontsize" : 12.0,
					"id" : "obj-7",
					"maxclass" : "newobj",
					"numinlets" : 3,
					"numoutlets" : 3,
					"outlettype" : [ "", "", "" ],
					"patching_rect" : [ 310.0, 330.0, 176.0, 20.0 ],
					"text" : "mxj oovu.Proxy #1 time/total"
				}

			}
, 			{
				"box" : 				{
					"fontname" : "Arial",
					"fontsize" : 12.0,
					"id" : "obj-6",
					"linecount" : 2,
					"maxclass" : "newobj",
					"numinlets" : 3,
					"numoutlets" : 3,
					"outlettype" : [ "", "", "" ],
					"patching_rect" : [ 290.0, 295.0, 176.0, 20.0 ],
					"text" : "mxj oovu.Proxy #1 time/current"
				}

			}
, 			{
				"box" : 				{
					"fontname" : "Arial",
					"fontsize" : 12.0,
					"id" : "obj-5",
					"linecount" : 2,
					"maxclass" : "newobj",
					"numinlets" : 3,
					"numoutlets" : 3,
					"outlettype" : [ "", "", "" ],
					"patching_rect" : [ 290.0, 390.0, 138.0, 20.0 ],
					"text" : "mxj oovu.Proxy #1 seek"
				}

			}
, 			{
				"box" : 				{
					"border" : 0,
					"filename" : "oovu.timeslider.js",
					"id" : "obj-3",
					"maxclass" : "jsui",
					"numinlets" : 2,
					"numoutlets" : 2,
					"outlettype" : [ "", "" ],
					"parameter_enable" : 0,
					"patching_rect" : [ 290.0, 360.0, 130.0, 25.0 ],
					"presentation" : 1,
					"presentation_rect" : [ 5.0, 180.0, 130.0, 25.0 ]
				}

			}
, 			{
				"box" : 				{
					"fontname" : "Arial",
					"fontsize" : 12.0,
					"id" : "obj-24",
					"maxclass" : "newobj",
					"numinlets" : 1,
					"numoutlets" : 2,
					"outlettype" : [ "", "bang" ],
					"patching_rect" : [ 290.0, 50.0, 105.0, 20.0 ],
					"text" : "opendialog sound"
				}

			}
, 			{
				"box" : 				{
					"bgcolor" : [ 0.568627, 0.619608, 0.662745, 1.0 ],
					"bgoncolor" : [ 0.921569, 0.94902, 0.05098, 1.0 ],
					"bgovercolor" : [ 0.568627, 0.619608, 0.662745, 1.0 ],
					"bgoveroncolor" : [ 0.921569, 0.94902, 0.05098, 1.0 ],
					"border" : 1,
					"bordercolor" : [ 0.301961, 0.337255, 0.403922, 1.0 ],
					"borderoncolor" : [ 0.301961, 0.337255, 0.403922, 1.0 ],
					"fontface" : 1,
					"fontname" : "Arial",
					"fontsize" : 10.0,
					"id" : "obj-23",
					"maxclass" : "textbutton",
					"numinlets" : 1,
					"numoutlets" : 3,
					"outlettype" : [ "", "", "int" ],
					"parameter_enable" : 0,
					"patching_rect" : [ 290.0, 30.0, 35.0, 15.0 ],
					"presentation" : 1,
					"presentation_rect" : [ 5.0, 30.0, 65.0, 15.0 ],
					"prototypename" : "M4L.toggle",
					"rounded" : 0.0,
					"text" : "Open",
					"textcolor" : [ 0.101961, 0.121569, 0.172549, 1.0 ],
					"texton" : "Trig",
					"textoncolor" : [ 0.101961, 0.121569, 0.172549, 1.0 ],
					"textovercolor" : [ 0.101961, 0.121569, 0.172549, 1.0 ],
					"textoveroncolor" : [ 0.101961, 0.121569, 0.172549, 1.0 ]
				}

			}
, 			{
				"box" : 				{
					"fontname" : "Arial",
					"fontsize" : 12.0,
					"id" : "obj-22",
					"maxclass" : "newobj",
					"numinlets" : 3,
					"numoutlets" : 3,
					"outlettype" : [ "", "", "" ],
					"patching_rect" : [ 290.0, 75.0, 232.0, 20.0 ],
					"text" : "mxj oovu.Proxy #1 filepath"
				}

			}
, 			{
				"box" : 				{
					"fontname" : "Arial",
					"fontsize" : 12.0,
					"id" : "obj-18",
					"maxclass" : "newobj",
					"numinlets" : 1,
					"numoutlets" : 0,
					"patching_rect" : [ 10.0, 360.0, 168.0, 20.0 ],
					"text" : "oovu.gui.send.dynamic #1"
				}

			}
, 			{
				"box" : 				{
					"bgcolor" : [ 0.568627, 0.619608, 0.662745, 1.0 ],
					"bgoncolor" : [ 1.0, 0.8, 0.4, 1.0 ],
					"bgovercolor" : [ 0.568627, 0.619608, 0.662745, 1.0 ],
					"bgoveroncolor" : [ 0.921569, 0.94902, 0.05098, 1.0 ],
					"border" : 1,
					"bordercolor" : [ 0.301961, 0.337255, 0.403922, 1.0 ],
					"borderoncolor" : [ 0.301961, 0.337255, 0.403922, 1.0 ],
					"fontface" : 1,
					"fontname" : "Arial",
					"fontsize" : 10.0,
					"id" : "obj-19",
					"maxclass" : "textbutton",
					"numinlets" : 1,
					"numoutlets" : 3,
					"outlettype" : [ "", "", "int" ],
					"parameter_enable" : 0,
					"patching_rect" : [ 10.0, 340.0, 32.0, 15.0 ],
					"presentation" : 1,
					"presentation_rect" : [ 75.0, 30.0, 60.0, 15.0 ],
					"prototypename" : "M4L.toggle",
					"rounded" : 0.0,
					"text" : "Sends",
					"textcolor" : [ 0.101961, 0.121569, 0.172549, 1.0 ],
					"texton" : "Trig",
					"textoncolor" : [ 0.101961, 0.121569, 0.172549, 1.0 ],
					"textovercolor" : [ 0.101961, 0.121569, 0.172549, 1.0 ],
					"textoveroncolor" : [ 0.101961, 0.121569, 0.172549, 1.0 ]
				}

			}
, 			{
				"box" : 				{
					"args" : [ "#1", "output" ],
					"id" : "obj-11",
					"maxclass" : "bpatcher",
					"name" : "oovu.gui.meters.8x.maxpat",
					"numinlets" : 1,
					"numoutlets" : 1,
					"outlettype" : [ "signal" ],
					"patching_rect" : [ 10.0, 390.0, 40.0, 60.0 ],
					"presentation" : 1,
					"presentation_rect" : [ 75.0, 50.0, 40.0, 65.0 ]
				}

			}
, 			{
				"box" : 				{
					"focusbordercolor" : [ 0.0, 0.019608, 0.078431, 0.0 ],
					"id" : "obj-12",
					"maxclass" : "live.slider",
					"numinlets" : 1,
					"numoutlets" : 2,
					"outlettype" : [ "", "float" ],
					"parameter_enable" : 1,
					"patching_rect" : [ 60.0, 390.0, 20.0, 60.0 ],
					"presentation" : 1,
					"presentation_rect" : [ 115.0, 50.0, 20.0, 65.0 ],
					"prototypename" : "gain",
					"saved_attribute_attributes" : 					{
						"valueof" : 						{
							"parameter_linknames" : 1,
							"parameter_longname" : "live.slider[1]",
							"parameter_shortname" : "live.slider",
							"parameter_type" : 0,
							"parameter_mmax" : 1.0,
							"parameter_initial_enable" : 1,
							"parameter_initial" : [ 0 ],
							"parameter_unitstyle" : 1,
							"parameter_speedlim" : 0.0
						}

					}
,
					"showname" : 0,
					"shownumber" : 0,
					"trioncolor" : [ 1.0, 0.0, 0.0, 1.0 ],
					"varname" : "live.slider[1]"
				}

			}
, 			{
				"box" : 				{
					"fontname" : "Arial",
					"fontsize" : 12.0,
					"id" : "obj-13",
					"linecount" : 2,
					"maxclass" : "newobj",
					"numinlets" : 3,
					"numoutlets" : 3,
					"outlettype" : [ "", "", "" ],
					"patching_rect" : [ 90.0, 390.0, 195.0, 20.0 ],
					"text" : "mxj oovu.Proxy #1 dsp/output/gain"
				}

			}
, 			{
				"box" : 				{
					"bgcolor" : [ 0.568627, 0.619608, 0.662745, 1.0 ],
					"bgoncolor" : [ 0.921569, 0.94902, 0.05098, 1.0 ],
					"bgovercolor" : [ 0.568627, 0.619608, 0.662745, 1.0 ],
					"bgoveroncolor" : [ 0.921569, 0.94902, 0.05098, 1.0 ],
					"border" : 1,
					"bordercolor" : [ 0.301961, 0.337255, 0.403922, 1.0 ],
					"borderoncolor" : [ 0.301961, 0.337255, 0.403922, 1.0 ],
					"fontface" : 1,
					"fontname" : "Arial",
					"fontsize" : 10.0,
					"id" : "obj-4",
					"maxclass" : "textbutton",
					"mode" : 1,
					"numinlets" : 1,
					"numoutlets" : 3,
					"outlettype" : [ "", "", "int" ],
					"parameter_enable" : 0,
					"patching_rect" : [ 10.0, 290.0, 40.0, 15.0 ],
					"presentation" : 1,
					"presentation_rect" : [ 75.0, 5.0, 60.0, 15.0 ],
					"prototypename" : "M4L.toggle-yellow",
					"rounded" : 0.0,
					"text" : "Muted",
					"textcolor" : [ 0.101961, 0.121569, 0.172549, 1.0 ],
					"texton" : "Active",
					"textoncolor" : [ 0.101961, 0.121569, 0.172549, 1.0 ],
					"textovercolor" : [ 0.101961, 0.121569, 0.172549, 1.0 ],
					"textoveroncolor" : [ 0.101961, 0.121569, 0.172549, 1.0 ]
				}

			}
, 			{
				"box" : 				{
					"fontname" : "Arial",
					"fontsize" : 12.0,
					"id" : "obj-10",
					"linecount" : 2,
					"maxclass" : "newobj",
					"numinlets" : 3,
					"numoutlets" : 3,
					"outlettype" : [ "", "", "" ],
					"patching_rect" : [ 10.0, 310.0, 171.0, 20.0 ],
					"text" : "mxj oovu.Proxy #1 dsp/:active"
				}

			}
, 			{
				"box" : 				{
					"fontname" : "Arial",
					"fontsize" : 12.0,
					"id" : "obj-2",
					"maxclass" : "newobj",
					"numinlets" : 2,
					"numoutlets" : 2,
					"outlettype" : [ "", "" ],
					"patching_rect" : [ 10.0, 40.0, 100.0, 20.0 ],
					"text" : "routepass name"
				}

			}
, 			{
				"box" : 				{
					"fontname" : "Arial",
					"fontsize" : 12.0,
					"id" : "obj-1",
					"linecount" : 2,
					"maxclass" : "newobj",
					"numinlets" : 3,
					"numoutlets" : 3,
					"outlettype" : [ "", "", "" ],
					"patching_rect" : [ 10.0, 10.0, 116.0, 20.0 ],
					"text" : "mxj oovu.Proxy #1 ."
				}

			}
, 			{
				"box" : 				{
					"background" : 1,
					"border" : 0,
					"filename" : "oovu.guibackground.js",
					"id" : "obj-8",
					"maxclass" : "jsui",
					"numinlets" : 1,
					"numoutlets" : 1,
					"outlettype" : [ "" ],
					"parameter_enable" : 0,
					"patching_rect" : [ 10.0, 70.0, 140.0, 210.0 ],
					"presentation" : 1,
					"presentation_rect" : [ 0.0, 0.0, 140.0, 210.0 ]
				}

			}
 ],
		"lines" : [ 			{
				"patchline" : 				{
					"destination" : [ "obj-2", 0 ],
					"disabled" : 0,
					"hidden" : 0,
					"source" : [ "obj-1", 2 ]
				}

			}
, 			{
				"patchline" : 				{
					"destination" : [ "obj-4", 0 ],
					"disabled" : 0,
					"hidden" : 0,
					"source" : [ "obj-10", 0 ]
				}

			}
, 			{
				"patchline" : 				{
					"destination" : [ "obj-13", 0 ],
					"disabled" : 0,
					"hidden" : 0,
					"source" : [ "obj-12", 0 ]
				}

			}
, 			{
				"patchline" : 				{
					"destination" : [ "obj-12", 0 ],
					"disabled" : 0,
					"hidden" : 0,
					"source" : [ "obj-13", 0 ]
				}

			}
, 			{
				"patchline" : 				{
					"destination" : [ "obj-9", 0 ],
					"disabled" : 0,
					"hidden" : 0,
					"source" : [ "obj-14", 0 ]
				}

			}
, 			{
				"patchline" : 				{
					"destination" : [ "obj-16", 0 ],
					"disabled" : 0,
					"hidden" : 0,
					"source" : [ "obj-15", 0 ]
				}

			}
, 			{
				"patchline" : 				{
					"destination" : [ "obj-15", 0 ],
					"disabled" : 0,
					"hidden" : 0,
					"midpoints" : [ 299.5, 290.0, 282.0, 290.0, 282.0, 238.0, 299.5, 238.0 ],
					"source" : [ "obj-16", 0 ]
				}

			}
, 			{
				"patchline" : 				{
					"destination" : [ "obj-20", 0 ],
					"disabled" : 0,
					"hidden" : 0,
					"source" : [ "obj-17", 0 ]
				}

			}
, 			{
				"patchline" : 				{
					"destination" : [ "obj-18", 0 ],
					"disabled" : 0,
					"hidden" : 0,
					"source" : [ "obj-19", 0 ]
				}

			}
, 			{
				"patchline" : 				{
					"destination" : [ "obj-8", 0 ],
					"disabled" : 0,
					"hidden" : 0,
					"source" : [ "obj-2", 0 ]
				}

			}
, 			{
				"patchline" : 				{
					"destination" : [ "obj-17", 0 ],
					"disabled" : 0,
					"hidden" : 0,
					"midpoints" : [ 299.5, 162.0, 284.0, 162.0, 284.0, 106.0, 299.5, 106.0 ],
					"source" : [ "obj-20", 0 ]
				}

			}
, 			{
				"patchline" : 				{
					"destination" : [ "obj-27", 0 ],
					"disabled" : 0,
					"hidden" : 0,
					"source" : [ "obj-22", 1 ]
				}

			}
, 			{
				"patchline" : 				{
					"destination" : [ "obj-24", 0 ],
					"disabled" : 0,
					"hidden" : 0,
					"source" : [ "obj-23", 0 ]
				}

			}
, 			{
				"patchline" : 				{
					"destination" : [ "obj-22", 0 ],
					"disabled" : 0,
					"hidden" : 0,
					"source" : [ "obj-24", 0 ]
				}

			}
, 			{
				"patchline" : 				{
					"destination" : [ "obj-26", 0 ],
					"disabled" : 0,
					"hidden" : 0,
					"source" : [ "obj-25", 0 ]
				}

			}
, 			{
				"patchline" : 				{
					"destination" : [ "obj-17", 0 ],
					"disabled" : 0,
					"hidden" : 0,
					"source" : [ "obj-26", 0 ]
				}

			}
, 			{
				"patchline" : 				{
					"destination" : [ "obj-21", 0 ],
					"disabled" : 0,
					"hidden" : 0,
					"source" : [ "obj-27", 0 ]
				}

			}
, 			{
				"patchline" : 				{
					"destination" : [ "obj-5", 0 ],
					"disabled" : 0,
					"hidden" : 0,
					"source" : [ "obj-3", 0 ]
				}

			}
, 			{
				"patchline" : 				{
					"destination" : [ "obj-10", 0 ],
					"disabled" : 0,
					"hidden" : 0,
					"source" : [ "obj-4", 0 ]
				}

			}
, 			{
				"patchline" : 				{
					"destination" : [ "obj-3", 0 ],
					"disabled" : 0,
					"hidden" : 0,
					"source" : [ "obj-6", 0 ]
				}

			}
, 			{
				"patchline" : 				{
					"destination" : [ "obj-3", 1 ],
					"disabled" : 0,
					"hidden" : 0,
					"source" : [ "obj-7", 1 ]
				}

			}
, 			{
				"patchline" : 				{
					"destination" : [ "obj-14", 0 ],
					"disabled" : 0,
					"hidden" : 0,
					"midpoints" : [ 299.5, 230.0, 282.0, 230.0, 282.0, 178.0, 299.5, 178.0 ],
					"source" : [ "obj-9", 0 ]
				}

			}
 ]
	}

}
